<svg xmlns="http://www.w3.org/2000/svg">
  <symbol id="user" width="24" height="24" viewBox="0 0 24 24" fill="none">
    <mask id="mask0_1_145" style="mask-type:alpha" maskUnits="userSpaceOnUse" x="0" y="0" width="24" height="24">
      <rect width="24" height="24" fill="#D9D9D9" />
    </mask>
    <g mask="url(#mask0_1_145)">
      <path
        d="M12 12C10.9 12 9.95833 11.6083 9.175 10.825C8.39167 10.0417 8 9.1 8 8C8 6.9 8.39167 5.95833 9.175 5.175C9.95833 4.39167 10.9 4 12 4C13.1 4 14.0417 4.39167 14.825 5.175C15.6083 5.95833 16 6.9 16 8C16 9.1 15.6083 10.0417 14.825 10.825C14.0417 11.6083 13.1 12 12 12ZM4 20V17.2C4 16.6333 4.146 16.1123 4.438 15.637C4.72933 15.1623 5.11667 14.8 5.6 14.55C6.63333 14.0333 7.68333 13.6457 8.75 13.387C9.81667 13.129 10.9 13 12 13C13.1 13 14.1833 13.129 15.25 13.387C16.3167 13.6457 17.3667 14.0333 18.4 14.55C18.8833 14.8 19.2707 15.1623 19.562 15.637C19.854 16.1123 20 16.6333 20 17.2V20H4ZM6 18H18V17.2C18 17.0167 17.9543 16.85 17.863 16.7C17.771 16.55 17.65 16.4333 17.5 16.35C16.6 15.9 15.6917 15.5623 14.775 15.337C13.8583 15.1123 12.9333 15 12 15C11.0667 15 10.1417 15.1123 9.225 15.337C8.30833 15.5623 7.4 15.9 6.5 16.35C6.35 16.4333 6.22933 16.55 6.138 16.7C6.046 16.85 6 17.0167 6 17.2V18ZM12 10C12.55 10 13.021 9.804 13.413 9.412C13.8043 9.02067 14 8.55 14 8C14 7.45 13.8043 6.97933 13.413 6.588C13.021 6.196 12.55 6 12 6C11.45 6 10.9793 6.196 10.588 6.588C10.196 6.97933 10 7.45 10 8C10 8.55 10.196 9.02067 10.588 9.412C10.9793 9.804 11.45 10 12 10Z"
        fill="#1C1B1F" />
    </g>
  </symbol>
  <symbol id="mail" width="24" height="24" viewBox="0 0 24 24" fill="none">
    <mask id="mask0_1_148" style="mask-type:alpha" maskUnits="userSpaceOnUse" x="0" y="0" width="24" height="24">
      <rect width="24" height="24" fill="#D9D9D9" />
    </mask>
    <g mask="url(#mask0_1_148)">
      <path
        d="M4 20C3.45 20 2.97933 19.8043 2.588 19.413C2.196 19.021 2 18.55 2 18V6C2 5.45 2.196 4.97933 2.588 4.588C2.97933 4.196 3.45 4 4 4H20C20.55 4 21.021 4.196 21.413 4.588C21.8043 4.97933 22 5.45 22 6V18C22 18.55 21.8043 19.021 21.413 19.413C21.021 19.8043 20.55 20 20 20H4ZM12 13L4 8V18H20V8L12 13ZM12 11L20 6H4L12 11ZM4 8V6V18V8Z"
        fill="#1C1B1F" />
    </g>
  </symbol>
  <symbol id="password" width="24" height="24" viewBox="0 0 24 24" fill="none">
    <mask id="mask0_1_153" style="mask-type:alpha" maskUnits="userSpaceOnUse" x="0" y="0" width="24" height="24">
      <rect width="24" height="24" fill="#D9D9D9" />
    </mask>
    <g mask="url(#mask0_1_153)">
      <path
        d="M6 22C5.45 22 4.97933 21.8043 4.588 21.413C4.196 21.021 4 20.55 4 20V10C4 9.45 4.196 8.979 4.588 8.587C4.97933 8.19567 5.45 8 6 8H7V6C7 4.61667 7.48767 3.43733 8.463 2.462C9.43767 1.48733 10.6167 1 12 1C13.3833 1 14.5627 1.48733 15.538 2.462C16.5127 3.43733 17 4.61667 17 6V8H18C18.55 8 19.021 8.19567 19.413 8.587C19.8043 8.979 20 9.45 20 10V20C20 20.55 19.8043 21.021 19.413 21.413C19.021 21.8043 18.55 22 18 22H6ZM6 20H18V10H6V20ZM12 17C12.55 17 13.021 16.8043 13.413 16.413C13.8043 16.021 14 15.55 14 15C14 14.45 13.8043 13.979 13.413 13.587C13.021 13.1957 12.55 13 12 13C11.45 13 10.9793 13.1957 10.588 13.587C10.196 13.979 10 14.45 10 15C10 15.55 10.196 16.021 10.588 16.413C10.9793 16.8043 11.45 17 12 17ZM9 8H15V6C15 5.16667 14.7083 4.45833 14.125 3.875C13.5417 3.29167 12.8333 3 12 3C11.1667 3 10.4583 3.29167 9.875 3.875C9.29167 4.45833 9 5.16667 9 6V8Z"
        fill="#1C1B1F" />
    </g>
  </symbol>
  <symbol id="cv" width="24" height="24" viewBox="0 0 24 24" fill="none" stroke-width="1.5" stroke="currentColor"
    class="w-6 h-6">
    <path stroke-linecap="round" stroke-linejoin="round"
      d="M19.5 14.25v-2.625a3.375 3.375 0 00-3.375-3.375h-1.5A1.125 1.125 0 0113.5 7.125v-1.5a3.375 3.375 0 00-3.375-3.375H8.25m2.25 0H5.625c-.621 0-1.125.504-1.125 1.125v17.25c0 .621.504 1.125 1.125 1.125h12.75c.621 0 1.125-.504 1.125-1.125V11.25a9 9 0 00-9-9z" />


  </symbol>
  <symbol id="send" width="37" height="33" viewBox="0 0 55 44" fill="none">
    <path d="M0.300873 32.6741L36.7651 16.6741L0.300873 0.674103V12.8827L14.4004 16.431L0.300873 19.9794V32.6741Z"
      fill="#577D1F" />

  </symbol>
  <symbol id="star" width="24" height="24" viewBox="0 0 24 24" fill="none">
    <path
      d="M11.45 0.419129C11.623 -0.139709 12.377 -0.13971 12.55 0.419128L14.9864 8.28362C15.0637 8.53355 15.2858 8.70276 15.5363 8.70276H23.4205C23.9808 8.70276 24.2138 9.45466 23.7605 9.80004L17.382 14.6606C17.1794 14.815 17.0946 15.0888 17.172 15.3387L19.6083 23.2033C19.7815 23.762 19.1716 24.2268 18.7184 23.8814L12.3399 19.0209C12.1372 18.8664 11.8628 18.8664 11.6601 19.0209L5.28164 23.8814C4.82839 24.2268 4.21856 23.762 4.39169 23.2033L6.82803 15.3387C6.90545 15.0888 6.82064 14.815 6.61794 14.6606L0.239503 9.80004C-0.213738 9.45466 0.0191961 8.70276 0.579429 8.70276H8.46362C8.71416 8.70276 8.93621 8.53355 9.01364 8.28362L11.45 0.419129Z"
      fill="#FFB800" />
  </symbol>
  <symbol id="emptystar" width="24" height="24" viewBox="0 0 24 24" fill="none">
    <path
      d="M11.9276 0.567089L11.9276 0.567019C11.9394 0.529113 11.9547 0.516284 11.9613 0.511534C11.9707 0.50487 11.9839 0.5 12 0.5C12.0161 0.5 12.0294 0.50487 12.0387 0.511534C12.0453 0.516283 12.0606 0.529113 12.0724 0.567017L12.0724 0.567087L14.5087 8.4315C14.5087 8.43153 14.5087 8.43156 14.5087 8.43158C14.647 8.87814 15.0536 9.20276 15.5363 9.20276H23.4205C23.443 9.20276 23.452 9.20847 23.4588 9.21394C23.4691 9.22235 23.4839 9.24049 23.493 9.26985C23.502 9.29909 23.5016 9.32744 23.4957 9.34877C23.4908 9.36651 23.4811 9.38431 23.4574 9.40234L23.4574 9.40235L17.079 14.2629L17.0789 14.2629C16.7034 14.5491 16.5571 15.0436 16.6943 15.4866L16.6944 15.4867L19.1307 23.3512L19.1307 23.3513C19.1425 23.3894 19.1388 23.4148 19.1329 23.4318C19.1261 23.4518 19.1126 23.4704 19.0952 23.4837C19.0777 23.497 19.0634 23.4998 19.0572 23.5L19.0569 23.5C19.0545 23.5001 19.0437 23.5006 19.0215 23.4837L19.0215 23.4837L12.643 18.6232L12.6429 18.6231C12.2612 18.3323 11.7388 18.3323 11.3571 18.6231L11.357 18.6232L4.97858 23.4837C4.95547 23.5013 4.94466 23.5 4.9428 23.5C4.93655 23.4998 4.92229 23.497 4.90483 23.4837C4.88741 23.4704 4.87394 23.4519 4.86709 23.4318C4.86126 23.4148 4.85747 23.3894 4.86929 23.3512L4.8693 23.3512L7.30564 15.4867L6.82803 15.3387L7.30564 15.4867C7.44292 15.0435 7.29658 14.5491 6.92095 14.2629L0.542556 9.40235L0.239503 9.80004L0.542554 9.40235C0.518908 9.38433 0.509247 9.36654 0.504305 9.34879C0.498364 9.32745 0.497958 9.2991 0.50702 9.26984C0.516118 9.24048 0.530885 9.22233 0.541245 9.21393C0.547987 9.20846 0.55699 9.20276 0.579429 9.20276H8.46362C8.94639 9.20276 9.35292 8.87808 9.49124 8.43158L11.9276 0.567089Z"
      fill="#F7FEEC" stroke="#FFB800" />
  </symbol>
  <symbol id="halfstar" width="24" height="24" viewBox="0 0 26 26" fill="none">
    <mask id="path-1-outside-1_6_190" maskUnits="userSpaceOnUse" x="0" y="0" width="26" height="27" fill="black">
      <rect fill="white" width="26" height="27" />
      <path
        d="M13.0597 1.07001C13.0719 1.03045 13.0877 1.01699 13.0945 1.01204C13.1042 1.00508 13.1178 1 13.1344 1C13.151 1 13.1647 1.00508 13.1743 1.01204C13.1811 1.01699 13.1969 1.03038 13.2091 1.06993L15.7229 9.27634C15.7229 9.27632 15.7229 9.27637 15.7229 9.27634C15.8656 9.74231 16.2851 10.0811 16.7831 10.0811H24.918C24.9412 10.0811 24.9505 10.0871 24.9575 10.0928C24.9681 10.1016 24.9834 10.1205 24.9928 10.1511C25.0021 10.1816 25.0017 10.2112 24.9956 10.2335C24.9905 10.252 24.9805 10.2706 24.9561 10.2894L18.3749 15.3613C17.9874 15.6599 17.8364 16.1759 17.978 16.6382L20.4918 24.8447C20.504 24.8845 20.5002 24.9111 20.4941 24.9288C20.4871 24.9497 20.4731 24.9691 20.4552 24.983C20.4371 24.9968 20.4224 24.9998 20.416 25C20.4135 25.0001 20.402 25.0006 20.3791 24.983L13.7978 19.9111C13.404 19.6077 12.8649 19.6076 12.4711 19.911L5.88975 24.983C5.8659 25.0013 5.85475 25 5.85283 25C5.84638 24.9998 5.83167 24.9968 5.81365 24.983C5.79568 24.9691 5.78178 24.9498 5.77472 24.9288C5.7687 24.9111 5.76479 24.8846 5.77698 24.8447L8.2908 16.6383C8.43244 16.1758 8.28145 15.6599 7.89387 15.3613L1.31269 10.2894C1.28829 10.2706 1.27832 10.252 1.27322 10.2335C1.26709 10.2112 1.26667 10.1817 1.27602 10.1511C1.28541 10.1205 1.30065 10.1016 1.31134 10.0928C1.31829 10.0871 1.32758 10.0811 1.35073 10.0811H9.48559C9.98371 10.0811 10.4032 9.74234 10.5459 9.27642L13.0597 1.07001Z" />
    </mask>
    <path
      d="M13.0597 1.07001C13.0719 1.03045 13.0877 1.01699 13.0945 1.01204C13.1042 1.00508 13.1178 1 13.1344 1C13.151 1 13.1647 1.00508 13.1743 1.01204C13.1811 1.01699 13.1969 1.03038 13.2091 1.06993L15.7229 9.27634C15.7229 9.27632 15.7229 9.27637 15.7229 9.27634C15.8656 9.74231 16.2851 10.0811 16.7831 10.0811H24.918C24.9412 10.0811 24.9505 10.0871 24.9575 10.0928C24.9681 10.1016 24.9834 10.1205 24.9928 10.1511C25.0021 10.1816 25.0017 10.2112 24.9956 10.2335C24.9905 10.252 24.9805 10.2706 24.9561 10.2894L18.3749 15.3613C17.9874 15.6599 17.8364 16.1759 17.978 16.6382L20.4918 24.8447C20.504 24.8845 20.5002 24.9111 20.4941 24.9288C20.4871 24.9497 20.4731 24.9691 20.4552 24.983C20.4371 24.9968 20.4224 24.9998 20.416 25C20.4135 25.0001 20.402 25.0006 20.3791 24.983L13.7978 19.9111C13.404 19.6077 12.8649 19.6076 12.4711 19.911L5.88975 24.983C5.8659 25.0013 5.85475 25 5.85283 25C5.84638 24.9998 5.83167 24.9968 5.81365 24.983C5.79568 24.9691 5.78178 24.9498 5.77472 24.9288C5.7687 24.9111 5.76479 24.8846 5.77698 24.8447L8.2908 16.6383C8.43244 16.1758 8.28145 15.6599 7.89387 15.3613L1.31269 10.2894C1.28829 10.2706 1.27832 10.252 1.27322 10.2335C1.26709 10.2112 1.26667 10.1817 1.27602 10.1511C1.28541 10.1205 1.30065 10.1016 1.31134 10.0928C1.31829 10.0871 1.32758 10.0811 1.35073 10.0811H9.48559C9.98371 10.0811 10.4032 9.74234 10.5459 9.27642L13.0597 1.07001Z"
      fill="#FFB800" />
    <path
      d="M8.44032 16.1612L7.94752 16.0067L7.64848 16.961L8.14127 17.1154L8.44032 16.1612ZM0.91336 9.98851L0.600672 10.4035L1.39933 11.0053L1.71202 10.5903L0.91336 9.98851ZM13.0597 1.07001L12.104 0.775816L12.1036 0.777116L13.0597 1.07001ZM13.0945 1.01204L12.5118 0.199312L12.506 0.20352L13.0945 1.01204ZM13.1743 1.01204L13.7627 0.20346L13.7611 0.202299L13.1743 1.01204ZM13.2091 1.06993L14.1653 0.777046L14.1649 0.775727L13.2091 1.06993ZM24.9575 10.0928L25.5943 9.32169L25.5886 9.31707L24.9575 10.0928ZM24.9928 10.1511L25.9495 9.85997L25.9489 9.85812L24.9928 10.1511ZM24.9956 10.2335L24.031 9.96967L24.0309 9.97002L24.9956 10.2335ZM24.9561 10.2894L24.3463 9.49682L24.3457 9.49731L24.9561 10.2894ZM18.3749 15.3613L17.7645 14.5692L17.7644 14.5693L18.3749 15.3613ZM17.978 16.6382L17.0218 16.931L17.0218 16.9311L17.978 16.6382ZM20.4918 24.8447L21.448 24.5519L21.448 24.5518L20.4918 24.8447ZM20.4941 24.9288L19.5482 24.6042L19.5462 24.6101L20.4941 24.9288ZM20.4552 24.983L21.0646 25.7758L21.0668 25.7741L20.4552 24.983ZM20.416 25L20.3834 24.0005L20.3739 24.0009L20.416 25ZM20.3791 24.983L19.7687 25.775L19.7691 25.7753L20.3791 24.983ZM13.7978 19.9111L14.4083 19.1191L14.4082 19.119L13.7978 19.9111ZM12.4711 19.911L11.8607 19.1189L11.8606 19.119L12.4711 19.911ZM5.88975 24.983L6.49994 25.7752L6.50017 25.775L5.88975 24.983ZM5.85283 25L5.82049 25.9995L5.83666 26H5.85283V25ZM5.81365 24.983L5.2025 25.7745L5.20338 25.7752L5.81365 24.983ZM5.77472 24.9288L6.72236 24.6095L6.72175 24.6077L5.77472 24.9288ZM5.77698 24.8447L4.82084 24.5518L4.82074 24.5521L5.77698 24.8447ZM8.2908 16.6383L9.24694 16.9312L9.24695 16.9311L8.2908 16.6383ZM7.89387 15.3613L7.28345 16.1533L7.28351 16.1534L7.89387 15.3613ZM1.31269 10.2894L0.702245 11.0815L0.702265 11.0815L1.31269 10.2894ZM1.27322 10.2335L0.309085 10.4989L0.309091 10.4989L1.27322 10.2335ZM1.27602 10.1511L0.319899 9.85816L0.319853 9.85831L1.27602 10.1511ZM1.31134 10.0928L1.94541 10.8661L1.94565 10.8659L1.31134 10.0928ZM10.5459 9.27642L9.58974 8.98353L9.58973 8.98354L10.5459 9.27642ZM14.0155 1.3642C13.9951 1.43045 13.9588 1.51604 13.8953 1.60578C13.8266 1.70285 13.7487 1.7727 13.683 1.82055L12.506 0.20352C12.3197 0.339135 12.178 0.535261 12.104 0.775817L14.0155 1.3642ZM13.6772 1.82474C13.5151 1.9409 13.3245 2 13.1344 2V0C12.911 0 12.6932 0.069259 12.5118 0.199333L13.6772 1.82474ZM13.1344 2C12.9469 2 12.7539 1.94235 12.5875 1.82177L13.7611 0.202299C13.5756 0.0678176 13.3551 0 13.1344 0V2ZM12.5859 1.82061C12.5214 1.77365 12.4433 1.70411 12.374 1.60653C12.3102 1.51648 12.2738 1.43057 12.2534 1.36413L14.1649 0.775727C14.0904 0.533904 13.9481 0.338326 13.7627 0.203461L12.5859 1.82061ZM12.253 1.36281L14.7667 9.56922L16.679 8.98346L14.1653 0.777047L12.253 1.36281ZM14.7229 9.27634C14.7229 9.27634 14.7229 9.27634 14.7229 9.27634C14.7229 9.27634 14.7229 9.27634 14.7229 9.27634C14.7229 9.27634 14.7229 9.27634 14.7229 9.27634C14.7229 9.27634 14.7229 9.27634 14.7229 9.27634C14.7229 9.27634 14.7229 9.27634 14.7229 9.27634C14.7229 9.27634 14.7229 9.27634 14.7229 9.27634C14.7229 9.27634 14.7229 9.27634 14.7229 9.27634C14.7229 9.27634 14.7229 9.27634 14.7229 9.27634C14.7229 9.27634 14.7229 9.27634 14.7229 9.27634C14.7229 9.27634 14.7229 9.27634 14.7229 9.27634C14.7229 9.27634 14.7229 9.27634 14.7229 9.27634C14.7229 9.27634 14.7229 9.27634 14.7229 9.27634C14.7229 9.27634 14.7229 9.27634 14.7229 9.27634C14.7229 9.27634 14.7229 9.27634 14.7229 9.27634C14.7229 9.27634 14.7229 9.27634 14.7229 9.27634C14.7229 9.27634 14.7229 9.27634 14.7229 9.27634C14.7229 9.27634 14.7229 9.27634 14.7229 9.27634C14.7229 9.27634 14.7229 9.27634 14.7229 9.27634C14.7229 9.27634 14.7229 9.27634 14.7229 9.27634C14.7229 9.27634 14.7229 9.27634 14.7229 9.27634C14.7229 9.27634 14.7229 9.27634 14.7229 9.27634C14.7229 9.27634 14.7229 9.27634 14.7229 9.27634C14.7229 9.27634 14.7229 9.27634 14.7229 9.27634C14.7229 9.27634 14.7229 9.27634 14.7229 9.27634C14.7229 9.27634 14.7229 9.27634 14.7229 9.27634C14.7229 9.27634 14.7229 9.27634 14.7229 9.27634C14.7229 9.27634 14.7229 9.27634 14.7229 9.27634C14.7229 9.27634 14.7229 9.27634 14.7229 9.27634C14.7229 9.27634 14.7229 9.27634 14.7229 9.27634C14.7229 9.27634 14.7229 9.27634 14.7229 9.27634C14.7229 9.27634 14.7229 9.27634 14.7229 9.27634C14.7229 9.27634 14.7229 9.27634 14.7229 9.27634C14.7229 9.27634 14.7229 9.27634 14.7229 9.27634C14.7229 9.27634 14.7229 9.27634 14.7229 9.27634C14.7229 9.27634 14.7229 9.27634 14.7229 9.27634C14.7229 9.27634 14.7229 9.27634 14.7229 9.27634C14.7229 9.27634 14.7229 9.27635 14.7229 9.27635C14.7229 9.27635 14.7229 9.27635 14.7229 9.27635C14.7229 9.27635 14.7229 9.27635 14.7229 9.27635C14.7229 9.27635 14.7229 9.27635 14.7229 9.27635C14.7229 9.27635 14.7229 9.27635 14.7229 9.27635C14.7229 9.27635 14.7229 9.27635 14.7229 9.27635C14.7229 9.27635 14.7229 9.27635 14.7229 9.27635C14.7229 9.27635 14.7229 9.27635 14.7229 9.27635C14.7229 9.27635 14.7229 9.27635 14.7229 9.27635C14.7229 9.27635 14.7229 9.27635 14.7229 9.27635C14.7229 9.27635 14.7229 9.27635 14.7229 9.27635C14.7229 9.27635 14.7229 9.27635 14.7229 9.27635C14.7229 9.27635 14.7229 9.27635 14.7229 9.27635C14.7229 9.27635 14.7229 9.27635 14.7229 9.27635C14.7229 9.27635 14.7229 9.27635 14.7229 9.27635C14.7229 9.27635 14.7229 9.27635 14.7229 9.27635C14.7229 9.27635 14.7229 9.27635 14.7229 9.27635C14.7229 9.27635 14.7229 9.27635 14.7229 9.27635C14.7229 9.27635 14.7229 9.27635 14.7229 9.27635C14.7229 9.27635 14.7229 9.27635 14.7229 9.27635C14.7229 9.27635 14.7229 9.27635 14.7229 9.27635C14.7229 9.27635 14.7229 9.27635 14.7229 9.27635C14.7229 9.27635 14.7229 9.27635 14.7229 9.27635C14.7229 9.27635 14.7229 9.27635 14.7229 9.27635C14.7229 9.27635 14.7229 9.27635 14.7229 9.27635C14.7229 9.27635 14.7229 9.27635 14.7229 9.27635C14.7229 9.27635 14.7229 9.27635 14.7229 9.27635C14.7229 9.27635 14.7229 9.27635 14.7229 9.27635C14.7229 9.27635 14.7229 9.27635 14.7229 9.27635C14.7229 9.27635 14.7229 9.27635 14.7229 9.27635C14.7229 9.27635 14.7229 9.27635 14.7229 9.27635C14.7229 9.27635 14.7229 9.27635 14.7229 9.27635C14.7229 9.27635 14.7229 9.27635 14.7229 9.27635C14.7229 9.27635 14.7229 9.27635 14.7229 9.27635C14.7229 9.27635 14.7229 9.27635 14.7229 9.27635C14.7229 9.27635 14.7229 9.27635 14.7229 9.27635C14.7229 9.27635 14.7229 9.27635 14.7229 9.27635C14.7229 9.27635 14.7229 9.27635 14.7229 9.27635C14.7229 9.27635 14.7229 9.27635 14.7229 9.27635C14.7229 9.27635 14.7229 9.27635 14.7229 9.27635C14.7229 9.27635 14.7229 9.27635 14.7229 9.27635C14.7229 9.27635 14.7229 9.27635 14.7229 9.27635C14.7229 9.27635 14.7229 9.27635 14.7229 9.27635C14.7229 9.27635 14.7229 9.27635 14.7229 9.27635C14.7229 9.27635 14.7229 9.27635 14.7229 9.27635C14.7229 9.27635 14.7229 9.27635 14.7229 9.27635C14.7229 9.27635 14.7229 9.27635 14.7229 9.27635C14.7229 9.27635 14.7229 9.27635 14.7229 9.27635C14.7229 9.27635 14.7229 9.27635 14.7229 9.27635C14.7229 9.27635 14.7229 9.27635 14.7229 9.27635C14.7229 9.27635 14.7229 9.27635 14.7229 9.27635C14.7229 9.27635 14.7229 9.27635 14.7229 9.27635C14.7229 9.27635 14.7229 9.27635 14.7229 9.27635C14.7229 9.27635 14.7229 9.27635 14.7229 9.27635C14.7229 9.27635 14.7229 9.27635 14.7229 9.27635C14.7229 9.27635 14.7229 9.27635 14.7229 9.27635C14.7229 9.27635 14.7229 9.27635 14.7229 9.27635C14.7229 9.27635 14.7229 9.27635 14.7229 9.27635C14.7229 9.27635 14.7229 9.27635 14.7229 9.27635C14.7229 9.27635 14.7229 9.27635 14.7229 9.27635C14.7229 9.27635 14.7229 9.27635 14.7229 9.27635C14.7229 9.27635 14.7229 9.27635 14.7229 9.27635C14.7229 9.27635 14.7229 9.27635 14.7229 9.27635C14.7229 9.27635 14.7229 9.27635 14.7229 9.27635C14.7229 9.27635 14.7229 9.27635 14.7229 9.27635C14.7229 9.27635 14.7229 9.27635 14.7229 9.27635C14.7229 9.27635 14.7229 9.27635 14.7229 9.27635C14.7229 9.27635 14.7229 9.27635 14.7229 9.27635C14.7229 9.27635 14.7229 9.27635 14.7229 9.27635C14.7229 9.27635 14.7229 9.27635 14.7229 9.27635C14.7229 9.27635 14.7229 9.27635 14.7229 9.27635C14.7229 9.27635 14.7229 9.27635 14.7229 9.27635C14.7229 9.27635 14.7229 9.27635 14.7229 9.27635C14.7229 9.27635 14.7229 9.27635 14.7229 9.27635C14.7229 9.27635 14.7229 9.27635 14.7229 9.27635C14.7229 9.27635 14.7229 9.27635 14.7229 9.27635C14.7229 9.27635 14.7229 9.27635 14.7229 9.27635C14.7229 9.27635 14.7229 9.27635 14.7229 9.27635C14.7229 9.27635 14.7229 9.27635 14.7229 9.27635C14.7229 9.27635 14.7229 9.27635 14.7229 9.27635C14.7229 9.27635 14.7229 9.27635 14.7229 9.27635C14.7229 9.27635 14.7229 9.27635 14.7229 9.27635C14.7229 9.27635 14.7229 9.27635 14.7229 9.27635C14.7229 9.27635 14.7229 9.27635 14.7229 9.27635C14.7229 9.27635 14.7229 9.27635 14.7229 9.27635C14.7229 9.27635 14.7229 9.27635 14.7229 9.27635C14.7229 9.27635 14.7229 9.27635 14.7229 9.27635C14.7229 9.27635 14.7229 9.27635 14.7229 9.27635C15.7229 9.27635 16.7229 9.27635 16.7229 9.27635C16.7229 9.27635 16.7229 9.27635 16.7229 9.27635C16.7229 9.27635 16.7229 9.27635 16.7229 9.27635C16.7229 9.27635 16.7229 9.27635 16.7229 9.27635C16.7229 9.27635 16.7229 9.27635 16.7229 9.27635C16.7229 9.27635 16.7229 9.27635 16.7229 9.27635C16.7229 9.27635 16.7229 9.27635 16.7229 9.27635C16.7229 9.27635 16.7229 9.27635 16.7229 9.27635C16.7229 9.27635 16.7229 9.27635 16.7229 9.27635C16.7229 9.27635 16.7229 9.27635 16.7229 9.27635C16.7229 9.27635 16.7229 9.27635 16.7229 9.27635C16.7229 9.27635 16.7229 9.27635 16.7229 9.27635C16.7229 9.27635 16.7229 9.27635 16.7229 9.27635C16.7229 9.27635 16.7229 9.27635 16.7229 9.27635C16.7229 9.27635 16.7229 9.27635 16.7229 9.27635C16.7229 9.27635 16.7229 9.27635 16.7229 9.27635C16.7229 9.27635 16.7229 9.27635 16.7229 9.27635C16.7229 9.27635 16.7229 9.27635 16.7229 9.27635C16.7229 9.27635 16.7229 9.27635 16.7229 9.27635C16.7229 9.27635 16.7229 9.27635 16.7229 9.27635C16.7229 9.27635 16.7229 9.27635 16.7229 9.27635C16.7229 9.27635 16.7229 9.27635 16.7229 9.27635C16.7229 9.27635 16.7229 9.27635 16.7229 9.27635C16.7229 9.27635 16.7229 9.27635 16.7229 9.27635C16.7229 9.27635 16.7229 9.27635 16.7229 9.27635C16.7229 9.27635 16.7229 9.27635 16.7229 9.27635C16.7229 9.27635 16.7229 9.27635 16.7229 9.27635C16.7229 9.27635 16.7229 9.27635 16.7229 9.27635C16.7229 9.27635 16.7229 9.27635 16.7229 9.27635C16.7229 9.27635 16.7229 9.27635 16.7229 9.27635C16.7229 9.27635 16.7229 9.27635 16.7229 9.27635C16.7229 9.27635 16.7229 9.27635 16.7229 9.27635C16.7229 9.27635 16.7229 9.27635 16.7229 9.27635C16.7229 9.27635 16.7229 9.27635 16.7229 9.27635C16.7229 9.27635 16.7229 9.27635 16.7229 9.27635C16.7229 9.27635 16.7229 9.27635 16.7229 9.27635C16.7229 9.27635 16.7229 9.27635 16.7229 9.27635C16.7229 9.27635 16.7229 9.27635 16.7229 9.27635C16.7229 9.27635 16.7229 9.27635 16.7229 9.27635C16.7229 9.27635 16.7229 9.27635 16.7229 9.27635C16.7229 9.27635 16.7229 9.27635 16.7229 9.27635C16.7229 9.27635 16.7229 9.27635 16.7229 9.27635C16.7229 9.27635 16.7229 9.27635 16.7229 9.27635C16.7229 9.27635 16.7229 9.27635 16.7229 9.27635C16.7229 9.27635 16.7229 9.27635 16.7229 9.27635C16.7229 9.27635 16.7229 9.27635 16.7229 9.27635C16.7229 9.27635 16.7229 9.27635 16.7229 9.27635C16.7229 9.27635 16.7229 9.27635 16.7229 9.27635C16.7229 9.27635 16.7229 9.27635 16.7229 9.27635C16.7229 9.27635 16.7229 9.27635 16.7229 9.27635C16.7229 9.27635 16.7229 9.27635 16.7229 9.27635C16.7229 9.27635 16.7229 9.27635 16.7229 9.27635C16.7229 9.27635 16.7229 9.27635 16.7229 9.27635C16.7229 9.27635 16.7229 9.27635 16.7229 9.27635C16.7229 9.27635 16.7229 9.27635 16.7229 9.27635C16.7229 9.27635 16.7229 9.27635 16.7229 9.27635C16.7229 9.27635 16.7229 9.27635 16.7229 9.27635C16.7229 9.27635 16.7229 9.27635 16.7229 9.27635C16.7229 9.27635 16.7229 9.27635 16.7229 9.27635C16.7229 9.27635 16.7229 9.27635 16.7229 9.27635C16.7229 9.27635 16.7229 9.27635 16.7229 9.27635C16.7229 9.27635 16.7229 9.27635 16.7229 9.27635C16.7229 9.27635 16.7229 9.27635 16.7229 9.27635C16.7229 9.27635 16.7229 9.27635 16.7229 9.27635C16.7229 9.27635 16.7229 9.27635 16.7229 9.27635C16.7229 9.27635 16.7229 9.27635 16.7229 9.27635C16.7229 9.27635 16.7229 9.27635 16.7229 9.27635C16.7229 9.27635 16.7229 9.27635 16.7229 9.27635C16.7229 9.27635 16.7229 9.27635 16.7229 9.27635C16.7229 9.27635 16.7229 9.27635 16.7229 9.27635C16.7229 9.27635 16.7229 9.27635 16.7229 9.27635C16.7229 9.27635 16.7229 9.27635 16.7229 9.27635C16.7229 9.27635 16.7229 9.27635 16.7229 9.27635C16.7229 9.27635 16.7229 9.27635 16.7229 9.27635C16.7229 9.27635 16.7229 9.27635 16.7229 9.27635C16.7229 9.27635 16.7229 9.27635 16.7229 9.27635C16.7229 9.27635 16.7229 9.27635 16.7229 9.27635C16.7229 9.27635 16.7229 9.27635 16.7229 9.27635C16.7229 9.27635 16.7229 9.27635 16.7229 9.27635C16.7229 9.27635 16.7229 9.27635 16.7229 9.27635C16.7229 9.27635 16.7229 9.27635 16.7229 9.27635C16.7229 9.27635 16.7229 9.27635 16.7229 9.27635C16.7229 9.27635 16.7229 9.27635 16.7229 9.27635C16.7229 9.27635 16.7229 9.27635 16.7229 9.27635C16.7229 9.27635 16.7229 9.27635 16.7229 9.27635C16.7229 9.27635 16.7229 9.27635 16.7229 9.27635C16.7229 9.27635 16.7229 9.27635 16.7229 9.27635C16.7229 9.27635 16.7229 9.27635 16.7229 9.27635C16.7229 9.27635 16.7229 9.27635 16.7229 9.27635C16.7229 9.27635 16.7229 9.27635 16.7229 9.27635C16.7229 9.27635 16.7229 9.27635 16.7229 9.27635C16.7229 9.27635 16.7229 9.27635 16.7229 9.27635C16.7229 9.27635 16.7229 9.27635 16.7229 9.27635C16.7229 9.27635 16.7229 9.27635 16.7229 9.27635C16.7229 9.27635 16.7229 9.27635 16.7229 9.27635C16.7229 9.27635 16.7229 9.27635 16.7229 9.27635C16.7229 9.27635 16.7229 9.27635 16.7229 9.27635C16.7229 9.27635 16.7229 9.27635 16.7229 9.27635C16.7229 9.27635 16.7229 9.27635 16.7229 9.27635C16.7229 9.27635 16.7229 9.27635 16.7229 9.27635C16.7229 9.27635 16.7229 9.27635 16.7229 9.27635C16.7229 9.27635 16.7229 9.27635 16.7229 9.27635C16.7229 9.27635 16.7229 9.27635 16.7229 9.27635C16.7229 9.27635 16.7229 9.27635 16.7229 9.27635C16.7229 9.27635 16.7229 9.27635 16.7229 9.27635C16.7229 9.27635 16.7229 9.27635 16.7229 9.27635C16.7229 9.27635 16.7229 9.27635 16.7229 9.27635C16.7229 9.27635 16.7229 9.27635 16.7229 9.27635C16.7229 9.27635 16.7229 9.27635 16.7229 9.27635C16.7229 9.27635 16.7229 9.27635 16.7229 9.27635C16.7229 9.27635 16.7229 9.27635 16.7229 9.27635C16.7229 9.27634 16.7229 9.27634 16.7229 9.27634C16.7229 9.27634 16.7229 9.27634 16.7229 9.27634C16.7229 9.27634 16.7229 9.27634 16.7229 9.27634C16.7229 9.27634 16.7229 9.27634 16.7229 9.27634C16.7229 9.27634 16.7229 9.27634 16.7229 9.27634C16.7229 9.27634 16.7229 9.27634 16.7229 9.27634C16.7229 9.27634 16.7229 9.27634 16.7229 9.27634C16.7229 9.27634 16.7229 9.27634 16.7229 9.27634C16.7229 9.27634 16.7229 9.27634 16.7229 9.27634C16.7229 9.27634 16.7229 9.27634 16.7229 9.27634C16.7229 9.27634 16.7229 9.27634 16.7229 9.27634C16.7229 9.27634 16.7229 9.27634 16.7229 9.27634C16.7229 9.27634 16.7229 9.27634 16.7229 9.27634C16.7229 9.27634 16.7229 9.27634 16.7229 9.27634C16.7229 9.27634 16.7229 9.27634 16.7229 9.27634C16.7229 9.27634 16.7229 9.27634 16.7229 9.27634C16.7229 9.27634 16.7229 9.27634 16.7229 9.27634C16.7229 9.27634 16.7229 9.27634 16.7229 9.27634C16.7229 9.27634 16.7229 9.27634 16.7229 9.27634C16.7229 9.27634 16.7229 9.27634 16.7229 9.27634C16.7229 9.27634 16.7229 9.27634 16.7229 9.27634C16.7229 9.27634 16.7229 9.27634 16.7229 9.27634C16.7229 9.27634 16.7229 9.27634 16.7229 9.27634C16.7229 9.27634 16.7229 9.27634 16.7229 9.27634C16.7229 9.27634 16.7229 9.27634 16.7229 9.27634C16.7229 9.27634 16.7229 9.27634 16.7229 9.27634C16.7229 9.27634 16.7229 9.27634 16.7229 9.27634C16.7229 9.27634 16.7229 9.27634 16.7229 9.27634C16.7229 9.27634 16.7229 9.27634 16.7229 9.27634C16.7229 9.27634 16.7229 9.27634 16.7229 9.27634C16.7229 9.27634 16.7229 9.27634 16.7229 9.27634C16.7229 9.27634 16.7229 9.27634 16.7229 9.27634C16.7229 9.27634 16.7229 9.27634 16.7229 9.27634C16.7229 9.27634 16.7229 9.27634 16.7229 9.27634C16.7229 9.27634 16.7229 9.27634 16.7229 9.27634C16.7229 9.27634 16.7229 9.27634 16.7229 9.27634C16.7229 9.27634 16.7229 9.27634 16.7229 9.27634C16.7229 9.27634 16.7229 9.27634 16.7229 9.27634C16.7229 9.27634 16.7229 9.27634 16.7229 9.27634C16.7229 9.27634 16.7229 9.27634 16.7229 9.27634C16.7229 9.27634 16.7229 9.27634 16.7229 9.27634C16.7229 9.27634 16.7229 9.27634 16.7229 9.27634C16.7229 9.27634 16.7229 9.27634 16.7229 9.27634C16.7229 9.27634 16.7229 9.27634 16.7229 9.27634C16.7229 9.27634 16.7229 9.27634 16.7229 9.27634C16.7229 9.27634 16.7229 9.27634 16.7229 9.27634C16.7229 9.27634 16.7229 9.27634 16.7229 9.27634C16.7229 9.27634 16.7229 9.27634 16.7229 9.27634C16.7229 9.27634 16.7229 9.27634 16.7229 9.27634C16.7229 9.27634 16.7229 9.27634 16.7229 9.27634C16.7229 9.27634 16.7229 9.27634 16.7229 9.27634C16.7229 9.27634 16.7229 9.27634 16.7229 9.27634C16.7229 9.27634 16.7229 9.27634 16.7229 9.27634C16.7229 9.27634 16.7229 9.27634 16.7229 9.27634C16.7229 9.27634 16.7229 9.27634 16.7229 9.27634C16.7229 9.27634 16.7229 9.27634 16.7229 9.27634C16.7229 9.27634 16.7229 9.27634 16.7229 9.27634C16.7229 9.27634 16.7229 9.27634 16.7229 9.27634C16.7229 9.27634 16.7229 9.27634 16.7229 9.27634C16.7229 9.27634 16.7229 9.27634 16.7229 9.27634C16.7229 9.27634 16.7229 9.27634 16.7229 9.27634C16.7229 9.27634 16.7229 9.27634 16.7229 9.27634C16.7229 9.27634 16.7229 9.27634 16.7229 9.27634C16.7229 9.27634 16.7229 9.27634 16.7229 9.27634C16.7229 9.27634 16.7229 9.27634 16.7229 9.27634C16.7229 9.27634 16.7229 9.27634 16.7229 9.27634C16.7229 9.27634 16.7229 9.27634 16.7229 9.27634C16.7229 9.27634 16.7229 9.27634 16.7229 9.27634C16.7229 9.27634 16.7229 9.27634 16.7229 9.27634C16.7229 9.27634 16.7229 9.27634 16.7229 9.27634C16.7229 9.27634 16.7229 9.27634 16.7229 9.27634C16.7229 9.27634 16.7229 9.27634 16.7229 9.27634C16.7229 9.27634 16.7229 9.27634 16.7229 9.27634C16.7229 9.27634 16.7229 9.27634 16.7229 9.27634C16.7229 9.27634 16.7229 9.27634 16.7229 9.27634C16.7229 9.27634 16.7229 9.27634 16.7229 9.27634C16.7229 9.27634 16.7229 9.27634 16.7229 9.27634C16.7229 9.27634 16.7229 9.27634 16.7229 9.27634C16.7229 9.27634 16.7229 9.27634 16.7229 9.27634C16.7229 9.27634 16.7229 9.27634 16.7229 9.27634C16.7229 9.27634 16.7229 9.27634 16.7229 9.27634C16.7229 9.27634 16.7229 9.27634 16.7229 9.27634C16.7229 9.27634 16.7229 9.27634 16.7229 9.27634C16.7229 9.27634 16.7229 9.27634 16.7229 9.27634C16.7229 9.27634 16.7229 9.27634 16.7229 9.27634C16.7229 9.27634 16.7229 9.27634 16.7229 9.27634C16.7229 9.27634 16.7229 9.27634 16.7229 9.27634C16.7229 9.27634 16.7229 9.27634 16.7229 9.27634C16.7229 9.27634 16.7229 9.27634 16.7229 9.27634C16.7229 9.27634 16.7229 9.27634 16.7229 9.27634C16.7229 9.27634 16.7229 9.27634 16.7229 9.27634C16.7229 9.27634 16.7229 9.27634 16.7229 9.27634C16.7229 9.27634 16.7229 9.27634 16.7229 9.27634C16.7229 9.27634 16.7229 9.27634 16.7229 9.27634C16.7229 9.27634 16.7229 9.27634 16.7229 9.27634C16.7229 9.27634 16.7229 9.27634 16.7229 9.27634C16.7229 9.27634 16.7229 9.27634 16.7229 9.27634C16.7229 9.27634 16.7229 9.27634 16.7229 9.27634C16.7229 9.27634 16.7229 9.27634 16.7229 9.27634C16.7229 9.27634 16.7229 9.27634 16.7229 9.27634C16.7229 9.27634 16.7229 9.27634 16.7229 9.27634C16.7229 9.27634 16.7229 9.27634 16.7229 9.27634C16.7229 9.27634 16.7229 9.27634 16.7229 9.27634C16.7229 9.27634 16.7229 9.27634 16.7229 9.27634C16.7229 9.27634 16.7229 9.27634 16.7229 9.27634C16.7229 9.27634 16.7229 9.27634 16.7229 9.27634C16.7229 9.27634 16.7229 9.27634 16.7229 9.27634C16.7229 9.27634 16.7229 9.27634 16.7229 9.27634C16.7229 9.27634 16.7229 9.27634 16.7229 9.27634C16.7229 9.27634 16.7229 9.27634 16.7229 9.27634C16.7229 9.27634 16.7229 9.27634 16.7229 9.27634C16.7229 9.27634 16.7229 9.27634 16.7229 9.27634C16.7229 9.27634 16.7229 9.27634 16.7229 9.27634C16.7229 9.27634 16.7229 9.27634 16.7229 9.27634C16.7229 9.27634 16.7229 9.27634 16.7229 9.27634C16.7229 9.27634 16.7229 9.27634 16.7229 9.27634C16.7229 9.27634 16.7229 9.27634 16.7229 9.27634C16.7229 9.27634 16.7229 9.27634 16.7229 9.27634C16.7229 9.27634 16.7229 9.27634 16.7229 9.27634C16.7229 9.27634 16.7229 9.27634 16.7229 9.27634C16.7229 9.27634 16.7229 9.27634 16.7229 9.27634C16.7229 9.27634 16.7229 9.27634 16.7229 9.27634C16.7229 9.27634 16.7229 9.27634 16.7229 9.27634C16.7229 9.27634 16.7229 9.27634 16.7229 9.27634C16.7229 9.27634 16.7229 9.27634 16.7229 9.27634C16.7229 9.27634 16.7229 9.27634 16.7229 9.27634C16.7229 9.27634 16.7229 9.27634 16.7229 9.27634C16.7229 9.27634 16.7229 9.27634 16.7229 9.27634C16.7229 9.27634 16.7229 9.27634 16.7229 9.27634C16.7229 9.27634 16.7229 9.27634 16.7229 9.27634C16.7229 9.27634 16.7229 9.27634 16.7229 9.27634C16.7229 9.27634 16.7229 9.27634 16.7229 9.27634C16.7229 9.27634 16.7229 9.27634 16.7229 9.27634C16.7229 9.27634 16.7229 9.27634 16.7229 9.27634C16.7229 9.27634 16.7229 9.27634 16.7229 9.27634C16.7229 9.27634 16.7229 9.27634 16.7229 9.27634C16.7229 9.27634 16.7229 9.27634 16.7229 9.27634C16.7229 9.27634 16.7229 9.27634 16.7229 9.27634C16.7229 9.27634 16.7229 9.27634 16.7229 9.27634C16.7229 9.27634 16.7229 9.27634 16.7229 9.27634C16.7229 9.27634 16.7229 9.27634 16.7229 9.27634C16.7229 9.27634 16.7229 9.27634 16.7229 9.27634C16.7229 9.27634 16.7229 9.27634 16.7229 9.27634C16.7229 9.27634 16.7229 9.27634 16.7229 9.27634C16.7229 9.27634 16.7229 9.27634 16.7229 9.27634C16.7229 9.27634 16.7229 9.27634 16.7229 9.27634C16.7229 9.27634 16.7229 9.27634 16.7229 9.27634C16.7229 9.27634 16.7229 9.27634 16.7229 9.27634C16.7229 9.27634 16.7229 9.27634 16.7229 9.27634C16.7229 9.27634 16.7229 9.27634 16.7229 9.27634C16.7229 9.27634 16.7229 9.27634 16.7229 9.27634C16.7229 9.27634 16.7229 9.27634 16.7229 9.27634C16.7229 9.27634 16.7229 9.27634 16.7229 9.27633C16.7229 9.27633 16.7229 9.27633 16.7229 9.27633C16.7229 9.27633 16.7229 9.27633 16.7229 9.27633C16.7229 9.27633 16.7229 9.27633 16.7229 9.27633C16.7229 9.27633 16.7229 9.27633 16.7229 9.27633C16.7229 9.27633 16.7229 9.27633 16.7229 9.27633C16.7229 9.27633 16.7229 9.27633 16.7229 9.27633C16.7229 9.27633 16.7229 9.27633 16.7229 9.27633C16.7229 9.27633 16.7229 9.27633 16.7229 9.27633C16.7229 9.27633 16.7229 9.27633 16.7229 9.27633C16.7229 9.27633 16.7229 9.27633 16.7229 9.27633C16.7229 9.27633 16.7229 9.27633 16.7229 9.27633C16.7229 9.27633 16.7229 9.27633 16.7229 9.27633C16.7229 9.27633 16.7229 9.27633 16.7229 9.27633C16.7229 9.27633 16.7229 9.27633 16.7229 9.27633C16.7229 9.27633 16.7229 9.27633 16.7229 9.27633C16.7229 9.27633 16.7229 9.27633 16.7229 9.27633C16.7229 9.27633 16.7229 9.27633 16.7229 9.27633C16.7229 9.27633 16.7229 9.27633 16.7229 9.27633C16.7229 9.27633 16.7229 9.27633 16.7229 9.27633C16.7229 9.27633 16.7229 9.27633 16.7229 9.27633C16.7229 9.27633 16.7229 9.27633 16.7229 9.27633C16.7229 9.27633 16.7229 9.27633 16.7229 9.27633C16.7229 9.27633 16.7229 9.27633 16.7229 9.27633C16.7229 9.27633 16.7229 9.27633 16.7229 9.27633C16.7229 9.27633 16.7229 9.27633 16.7229 9.27633C16.7229 9.27633 16.7229 9.27633 16.7229 9.27633C16.7229 9.27633 16.7229 9.27633 16.7229 9.27633C16.7229 9.27633 16.7229 9.27633 16.7229 9.27633C16.7229 9.27633 16.7229 9.27633 16.7229 9.27633C16.7229 9.27633 16.7229 9.27633 16.7229 9.27633C16.7229 9.27633 16.7229 9.27633 16.7229 9.27633C16.7229 9.27633 16.7229 9.27633 16.7229 9.27633C16.7229 9.27633 16.7229 9.27633 16.7229 9.27633C16.7229 9.27633 15.7229 9.27633 14.7229 9.27633C14.7229 9.27633 14.7229 9.27633 14.7229 9.27633C14.7229 9.27633 14.7229 9.27633 14.7229 9.27633C14.7229 9.27633 14.7229 9.27633 14.7229 9.27633C14.7229 9.27633 14.7229 9.27633 14.7229 9.27633C14.7229 9.27633 14.7229 9.27633 14.7229 9.27633C14.7229 9.27633 14.7229 9.27633 14.7229 9.27633C14.7229 9.27633 14.7229 9.27633 14.7229 9.27633C14.7229 9.27633 14.7229 9.27633 14.7229 9.27633C14.7229 9.27633 14.7229 9.27633 14.7229 9.27633C14.7229 9.27633 14.7229 9.27633 14.7229 9.27633C14.7229 9.27633 14.7229 9.27633 14.7229 9.27633C14.7229 9.27633 14.7229 9.27633 14.7229 9.27633C14.7229 9.27633 14.7229 9.27633 14.7229 9.27633C14.7229 9.27633 14.7229 9.27633 14.7229 9.27633C14.7229 9.27633 14.7229 9.27633 14.7229 9.27633C14.7229 9.27633 14.7229 9.27633 14.7229 9.27633C14.7229 9.27633 14.7229 9.27633 14.7229 9.27633C14.7229 9.27633 14.7229 9.27633 14.7229 9.27633C14.7229 9.27633 14.7229 9.27633 14.7229 9.27633C14.7229 9.27633 14.7229 9.27633 14.7229 9.27633C14.7229 9.27633 14.7229 9.27633 14.7229 9.27633C14.7229 9.27633 14.7229 9.27633 14.7229 9.27633C14.7229 9.27633 14.7229 9.27633 14.7229 9.27633C14.7229 9.27633 14.7229 9.27633 14.7229 9.27633C14.7229 9.27633 14.7229 9.27633 14.7229 9.27633C14.7229 9.27633 14.7229 9.27633 14.7229 9.27633C14.7229 9.27633 14.7229 9.27633 14.7229 9.27633C14.7229 9.27633 14.7229 9.27633 14.7229 9.27633C14.7229 9.27633 14.7229 9.27633 14.7229 9.27633C14.7229 9.27633 14.7229 9.27633 14.7229 9.27633C14.7229 9.27633 14.7229 9.27633 14.7229 9.27633C14.7229 9.27633 14.7229 9.27634 14.7229 9.27634C14.7229 9.27634 14.7229 9.27634 14.7229 9.27634C14.7229 9.27634 14.7229 9.27634 14.7229 9.27634C14.7229 9.27634 14.7229 9.27634 14.7229 9.27634C14.7229 9.27634 14.7229 9.27634 14.7229 9.27634C14.7229 9.27634 14.7229 9.27634 14.7229 9.27634C14.7229 9.27634 14.7229 9.27634 14.7229 9.27634C14.7229 9.27634 14.7229 9.27634 14.7229 9.27634C14.7229 9.27634 14.7229 9.27634 14.7229 9.27634C14.7229 9.27634 14.7229 9.27634 14.7229 9.27634C14.7229 9.27634 14.7229 9.27634 14.7229 9.27634C14.7229 9.27634 14.7229 9.27634 14.7229 9.27634C14.7229 9.27634 14.7229 9.27634 14.7229 9.27634C14.7229 9.27634 14.7229 9.27634 14.7229 9.27634C14.7229 9.27634 14.7229 9.27634 14.7229 9.27634C14.7229 9.27634 14.7229 9.27634 14.7229 9.27634C14.7229 9.27634 14.7229 9.27634 14.7229 9.27634C14.7229 9.27634 14.7229 9.27634 14.7229 9.27634C14.7229 9.27634 14.7229 9.27634 14.7229 9.27634C14.7229 9.27634 14.7229 9.27634 14.7229 9.27634C14.7229 9.27634 14.7229 9.27634 14.7229 9.27634C14.7229 9.27634 14.7229 9.27634 14.7229 9.27634C14.7229 9.27634 14.7229 9.27634 14.7229 9.27634C14.7229 9.27634 14.7229 9.27634 14.7229 9.27634C14.7229 9.27634 14.7229 9.27634 14.7229 9.27634C14.7229 9.27634 14.7229 9.27634 14.7229 9.27634C14.7229 9.27634 14.7229 9.27634 14.7229 9.27634C14.7229 9.27634 14.7229 9.27634 14.7229 9.27634C14.7229 9.27634 14.7229 9.27634 14.7229 9.27634C14.7229 9.27634 14.7229 9.27634 14.7229 9.27634C14.7229 9.27634 14.7229 9.27634 14.7229 9.27634C14.7229 9.27634 14.7229 9.27634 14.7229 9.27634C14.7229 9.27634 14.7229 9.27634 14.7229 9.27634C14.7229 9.27634 14.7229 9.27634 14.7229 9.27634C14.7229 9.27634 14.7229 9.27634 14.7229 9.27634C14.7229 9.27634 14.7229 9.27634 14.7229 9.27634C14.7229 9.27634 14.7229 9.27634 14.7229 9.27634C14.7229 9.27634 14.7229 9.27634 14.7229 9.27634C14.7229 9.27634 14.7229 9.27634 14.7229 9.27634C14.7229 9.27634 14.7229 9.27634 14.7229 9.27634C14.7229 9.27634 14.7229 9.27634 14.7229 9.27634C14.7229 9.27634 14.7229 9.27634 14.7229 9.27634C14.7229 9.27634 14.7229 9.27634 14.7229 9.27634C14.7229 9.27634 14.7229 9.27634 14.7229 9.27634C14.7229 9.27634 14.7229 9.27634 14.7229 9.27634C14.7229 9.27634 14.7229 9.27634 14.7229 9.27634C14.7229 9.27634 14.7229 9.27634 14.7229 9.27634C14.7229 9.27634 14.7229 9.27634 14.7229 9.27634C14.7229 9.27634 14.7229 9.27634 14.7229 9.27634C14.7229 9.27634 14.7229 9.27634 14.7229 9.27634C14.7229 9.27634 14.7229 9.27634 14.7229 9.27634C14.7229 9.27634 14.7229 9.27634 14.7229 9.27634C14.7229 9.27634 14.7229 9.27634 14.7229 9.27634C14.7229 9.27634 14.7229 9.27634 14.7229 9.27634C14.7229 9.27634 14.7229 9.27634 14.7229 9.27634C14.7229 9.27634 14.7229 9.27634 14.7229 9.27634C14.7229 9.27634 14.7229 9.27634 14.7229 9.27634C14.7229 9.27634 14.7229 9.27634 14.7229 9.27634C14.7229 9.27634 14.7229 9.27634 14.7229 9.27634H16.7229C16.7229 9.27634 16.7229 9.27634 16.7229 9.27634C16.7229 9.27634 16.7229 9.27634 16.7229 9.27634C16.7229 9.27634 16.7229 9.27634 16.7229 9.27634C16.7229 9.27634 16.7229 9.27634 16.7229 9.27634C16.7229 9.27634 16.7229 9.27634 16.7229 9.27634C16.7229 9.27634 16.7229 9.27634 16.7229 9.27634C16.7229 9.27634 16.7229 9.27634 16.7229 9.27634C16.7229 9.27634 16.7229 9.27634 16.7229 9.27634C16.7229 9.27634 16.7229 9.27634 16.7229 9.27634C16.7229 9.27634 16.7229 9.27634 16.7229 9.27634C16.7229 9.27634 16.7229 9.27634 16.7229 9.27634C16.7229 9.27634 16.7229 9.27634 16.7229 9.27634C16.7229 9.27634 16.7229 9.27634 16.7229 9.27634C16.7229 9.27634 16.7229 9.27634 16.7229 9.27634C16.7229 9.27634 16.7229 9.27634 16.7229 9.27634C16.7229 9.27634 16.7229 9.27634 16.7229 9.27634C16.7229 9.27634 16.7229 9.27634 16.7229 9.27634C16.7229 9.27634 16.7229 9.27634 16.7229 9.27634C16.7229 9.27634 16.7229 9.27634 16.7229 9.27634C16.7229 9.27634 16.7229 9.27634 16.7229 9.27634C16.7229 9.27634 16.7229 9.27634 16.7229 9.27634C16.7229 9.27634 16.7229 9.27634 16.7229 9.27634C16.7229 9.27634 16.7229 9.27634 16.7229 9.27634C16.7229 9.27634 16.7229 9.27634 16.7229 9.27634C16.7229 9.27634 16.7229 9.27634 16.7229 9.27634C16.7229 9.27634 16.7229 9.27634 16.7229 9.27634C16.7229 9.27634 16.7229 9.27634 16.7229 9.27634C16.7229 9.27634 16.7229 9.27634 16.7229 9.27634C16.7229 9.27634 16.7229 9.27634 16.7229 9.27634C16.7229 9.27634 16.7229 9.27634 16.7229 9.27634C16.7229 9.27634 16.7229 9.27634 16.7229 9.27634C16.7229 9.27634 16.7229 9.27634 16.7229 9.27634C16.7229 9.27634 16.7229 9.27634 16.7229 9.27634C16.7229 9.27634 16.7229 9.27634 16.7229 9.27634C16.7229 9.27634 16.7229 9.27634 16.7229 9.27634C16.7229 9.27634 16.7229 9.27634 16.7229 9.27634C16.7229 9.27634 16.7229 9.27634 16.7229 9.27634C16.7229 9.27634 16.7229 9.27634 16.7229 9.27634C16.7229 9.27634 16.7229 9.27634 16.7229 9.27634C16.7229 9.27634 16.7229 9.27634 16.7229 9.27634C16.7229 9.27634 16.7229 9.27634 16.7229 9.27634C16.7229 9.27634 16.7229 9.27634 16.7229 9.27634C16.7229 9.27634 16.7229 9.27634 16.7229 9.27634C16.7229 9.27634 16.7229 9.27634 16.7229 9.27634C16.7229 9.27634 16.7229 9.27634 16.7229 9.27634C16.7229 9.27634 16.7229 9.27634 16.7229 9.27634C16.7229 9.27634 16.7229 9.27634 16.7229 9.27634C16.7229 9.27634 16.7229 9.27634 16.7229 9.27634C16.7229 9.27634 16.7229 9.27634 16.7229 9.27634C16.7229 9.27634 16.7229 9.27634 16.7229 9.27634C16.7229 9.27634 16.7229 9.27634 16.7229 9.27634C16.7229 9.27634 16.7229 9.27634 16.7229 9.27634C16.7229 9.27634 16.7229 9.27634 16.7229 9.27634C16.7229 9.27634 16.7229 9.27634 16.7229 9.27634C16.7229 9.27634 16.7229 9.27634 16.7229 9.27634C16.7229 9.27634 16.7229 9.27634 16.7229 9.27634C16.7229 9.27634 16.7229 9.27634 16.7229 9.27634C16.7229 9.27634 16.7229 9.27634 16.7229 9.27634C16.7229 9.27634 16.7229 9.27633 16.7229 9.27633C16.7229 9.27633 16.7229 9.27633 16.7229 9.27633C16.7229 9.27633 16.7229 9.27633 16.7229 9.27633C16.7229 9.27633 16.7229 9.27633 16.7229 9.27633C16.7229 9.27633 16.7229 9.27633 16.7229 9.27633C16.7229 9.27633 16.7229 9.27633 16.7229 9.27633C16.7229 9.27633 16.7229 9.27633 16.7229 9.27633C16.7229 9.27633 16.7229 9.27633 16.7229 9.27633C16.7229 9.27633 16.7229 9.27633 16.7229 9.27633C16.7229 9.27633 16.7229 9.27633 16.7229 9.27633C16.7229 9.27633 16.7229 9.27633 16.7229 9.27633C16.7229 9.27633 16.7229 9.27633 16.7229 9.27633C16.7229 9.27633 16.7229 9.27633 16.7229 9.27633C16.7229 9.27633 16.7229 9.27633 16.7229 9.27633C16.7229 9.27633 16.7229 9.27633 16.7229 9.27633C16.7229 9.27633 16.7229 9.27633 16.7229 9.27633C16.7229 9.27633 16.7229 9.27633 16.7229 9.27633C16.7229 9.27633 16.7229 9.27633 16.7229 9.27633C16.7229 9.27633 16.7229 9.27633 16.7229 9.27633C16.7229 9.27633 16.7229 9.27633 16.7229 9.27633C16.7229 9.27633 16.7229 9.27633 16.7229 9.27633C16.7229 9.27633 16.7229 9.27633 16.7229 9.27633C16.7229 9.27633 16.7229 9.27633 16.7229 9.27633C16.7229 9.27633 16.7229 9.27633 16.7229 9.27633C16.7229 9.27633 16.7229 9.27633 16.7229 9.27633C16.7229 9.27633 16.7229 9.27633 16.7229 9.27633C16.7229 9.27633 16.7229 9.27633 16.7229 9.27633C16.7229 9.27633 16.7229 9.27633 16.7229 9.27633C16.7229 9.27633 16.7229 9.27633 16.7229 9.27633C16.7229 9.27633 16.7229 9.27633 16.7229 9.27633C16.7229 9.27633 16.7229 9.27633 16.7229 9.27633C16.7229 9.27633 16.7229 9.27633 16.7229 9.27633C15.7229 9.27633 14.7229 9.27633 14.7229 9.27633C14.7229 9.27633 14.7229 9.27633 14.7229 9.27633C14.7229 9.27633 14.7229 9.27633 14.7229 9.27633C14.7229 9.27633 14.7229 9.27633 14.7229 9.27633C14.7229 9.27633 14.7229 9.27633 14.7229 9.27633C14.7229 9.27633 14.7229 9.27633 14.7229 9.27633C14.7229 9.27633 14.7229 9.27633 14.7229 9.27633C14.7229 9.27633 14.7229 9.27633 14.7229 9.27633C14.7229 9.27633 14.7229 9.27633 14.7229 9.27633C14.7229 9.27633 14.7229 9.27633 14.7229 9.27633C14.7229 9.27633 14.7229 9.27633 14.7229 9.27633C14.7229 9.27633 14.7229 9.27633 14.7229 9.27633C14.7229 9.27633 14.7229 9.27633 14.7229 9.27633C14.7229 9.27633 14.7229 9.27633 14.7229 9.27633C14.7229 9.27633 14.7229 9.27633 14.7229 9.27633C14.7229 9.27633 14.7229 9.27633 14.7229 9.27633C14.7229 9.27633 14.7229 9.27633 14.7229 9.27633C14.7229 9.27633 14.7229 9.27633 14.7229 9.27633C14.7229 9.27633 14.7229 9.27633 14.7229 9.27633C14.7229 9.27633 14.7229 9.27633 14.7229 9.27633C14.7229 9.27633 14.7229 9.27633 14.7229 9.27633C14.7229 9.27633 14.7229 9.27633 14.7229 9.27633C14.7229 9.27633 14.7229 9.27633 14.7229 9.27633C14.7229 9.27633 14.7229 9.27633 14.7229 9.27633C14.7229 9.27633 14.7229 9.27633 14.7229 9.27633C14.7229 9.27633 14.7229 9.27633 14.7229 9.27633C14.7229 9.27633 14.7229 9.27633 14.7229 9.27633C14.7229 9.27633 14.7229 9.27633 14.7229 9.27633C14.7229 9.27633 14.7229 9.27633 14.7229 9.27633C14.7229 9.27633 14.7229 9.27633 14.7229 9.27633C14.7229 9.27633 14.7229 9.27633 14.7229 9.27633C14.7229 9.27633 14.7229 9.27633 14.7229 9.27633C14.7229 9.27633 14.7229 9.27633 14.7229 9.27633C14.7229 9.27633 14.7229 9.27633 14.7229 9.27633C14.7229 9.27634 14.7229 9.27634 14.7229 9.27634C14.7229 9.27634 14.7229 9.27634 14.7229 9.27634C14.7229 9.27634 14.7229 9.27634 14.7229 9.27634C14.7229 9.27634 14.7229 9.27634 14.7229 9.27634C14.7229 9.27634 14.7229 9.27634 14.7229 9.27634C14.7229 9.27634 14.7229 9.27634 14.7229 9.27634C14.7229 9.27634 14.7229 9.27634 14.7229 9.27634C14.7229 9.27634 14.7229 9.27634 14.7229 9.27634C14.7229 9.27634 14.7229 9.27634 14.7229 9.27634C14.7229 9.27634 14.7229 9.27634 14.7229 9.27634C14.7229 9.27634 14.7229 9.27634 14.7229 9.27634C14.7229 9.27634 14.7229 9.27634 14.7229 9.27634C14.7229 9.27634 14.7229 9.27634 14.7229 9.27634C14.7229 9.27634 14.7229 9.27634 14.7229 9.27634C14.7229 9.27634 14.7229 9.27634 14.7229 9.27634C14.7229 9.27634 14.7229 9.27634 14.7229 9.27634C14.7229 9.27634 14.7229 9.27634 14.7229 9.27634C14.7229 9.27634 14.7229 9.27634 14.7229 9.27634C14.7229 9.27634 14.7229 9.27634 14.7229 9.27634C14.7229 9.27634 14.7229 9.27634 14.7229 9.27634C14.7229 9.27634 14.7229 9.27634 14.7229 9.27634C14.7229 9.27634 14.7229 9.27634 14.7229 9.27634C14.7229 9.27634 14.7229 9.27634 14.7229 9.27634C14.7229 9.27634 14.7229 9.27634 14.7229 9.27634C14.7229 9.27634 14.7229 9.27634 14.7229 9.27634C14.7229 9.27634 14.7229 9.27634 14.7229 9.27634C14.7229 9.27634 14.7229 9.27634 14.7229 9.27634C14.7229 9.27634 14.7229 9.27634 14.7229 9.27634C14.7229 9.27634 14.7229 9.27634 14.7229 9.27634C14.7229 9.27634 14.7229 9.27634 14.7229 9.27634C14.7229 9.27634 14.7229 9.27634 14.7229 9.27634C14.7229 9.27634 14.7229 9.27634 14.7229 9.27634C14.7229 9.27634 14.7229 9.27634 14.7229 9.27634C14.7229 9.27634 14.7229 9.27634 14.7229 9.27634C14.7229 9.27634 14.7229 9.27634 14.7229 9.27634C14.7229 9.27634 14.7229 9.27634 14.7229 9.27634C14.7229 9.27634 14.7229 9.27634 14.7229 9.27634C14.7229 9.27634 14.7229 9.27634 14.7229 9.27634C14.7229 9.27634 14.7229 9.27634 14.7229 9.27634C14.7229 9.27634 14.7229 9.27634 14.7229 9.27634C14.7229 9.27634 14.7229 9.27634 14.7229 9.27634C14.7229 9.27634 14.7229 9.27634 14.7229 9.27634C14.7229 9.27634 14.7229 9.27634 14.7229 9.27634C14.7229 9.27634 14.7229 9.27634 14.7229 9.27634C14.7229 9.27634 14.7229 9.27634 14.7229 9.27634C14.7229 9.27634 14.7229 9.27634 14.7229 9.27634C14.7229 9.27634 14.7229 9.27634 14.7229 9.27634C14.7229 9.27634 14.7229 9.27634 14.7229 9.27634C14.7229 9.27634 14.7229 9.27634 14.7229 9.27634C14.7229 9.27634 14.7229 9.27634 14.7229 9.27634C14.7229 9.27634 14.7229 9.27634 14.7229 9.27634C14.7229 9.27634 14.7229 9.27634 14.7229 9.27634C14.7229 9.27634 14.7229 9.27634 14.7229 9.27634C14.7229 9.27634 14.7229 9.27634 14.7229 9.27634C14.7229 9.27634 14.7229 9.27634 14.7229 9.27634C14.7229 9.27634 14.7229 9.27634 14.7229 9.27634C14.7229 9.27634 14.7229 9.27634 14.7229 9.27634C14.7229 9.27634 14.7229 9.27634 14.7229 9.27634C14.7229 9.27634 14.7229 9.27634 14.7229 9.27634C14.7229 9.27634 14.7229 9.27634 14.7229 9.27634C14.7229 9.27634 14.7229 9.27634 14.7229 9.27634C14.7229 9.27634 14.7229 9.27634 14.7229 9.27634C14.7229 9.27634 14.7229 9.27634 14.7229 9.27634C14.7229 9.27634 14.7229 9.27634 14.7229 9.27634C14.7229 9.27634 14.7229 9.27634 14.7229 9.27634C14.7229 9.27634 14.7229 9.27634 14.7229 9.27634C14.7229 9.27634 14.7229 9.27634 14.7229 9.27634C14.7229 9.27634 14.7229 9.27634 14.7229 9.27634C14.7229 9.27634 14.7229 9.27634 14.7229 9.27634C14.7229 9.27634 14.7229 9.27634 14.7229 9.27634C14.7229 9.27634 14.7229 9.27634 14.7229 9.27634C14.7229 9.27634 14.7229 9.27634 14.7229 9.27634C14.7229 9.27634 14.7229 9.27634 14.7229 9.27634C14.7229 9.27634 14.7229 9.27634 14.7229 9.27634C14.7229 9.27634 14.7229 9.27634 14.7229 9.27634C14.7229 9.27634 14.7229 9.27634 14.7229 9.27634C14.7229 9.27634 14.7229 9.27634 14.7229 9.27634C14.7229 9.27634 14.7229 9.27634 14.7229 9.27634C14.7229 9.27634 14.7229 9.27634 14.7229 9.27634C14.7229 9.27634 14.7229 9.27634 14.7229 9.27634C14.7229 9.27634 14.7229 9.27634 14.7229 9.27634C14.7229 9.27634 14.7229 9.27634 14.7229 9.27634C14.7229 9.27634 14.7229 9.27634 14.7229 9.27634C14.7229 9.27634 14.7229 9.27634 14.7229 9.27634C14.7229 9.27634 14.7229 9.27634 14.7229 9.27634C14.7229 9.27634 14.7229 9.27634 14.7229 9.27634C14.7229 9.27634 14.7229 9.27634 14.7229 9.27634C14.7229 9.27634 14.7229 9.27634 14.7229 9.27634C14.7229 9.27634 14.7229 9.27634 14.7229 9.27634C14.7229 9.27634 14.7229 9.27634 14.7229 9.27634C14.7229 9.27634 14.7229 9.27634 14.7229 9.27634C14.7229 9.27634 14.7229 9.27634 14.7229 9.27634C14.7229 9.27634 14.7229 9.27634 14.7229 9.27634C14.7229 9.27634 14.7229 9.27634 14.7229 9.27634C14.7229 9.27634 14.7229 9.27634 14.7229 9.27634C14.7229 9.27634 14.7229 9.27634 14.7229 9.27634C14.7229 9.27634 14.7229 9.27634 14.7229 9.27634C14.7229 9.27634 14.7229 9.27634 14.7229 9.27634C14.7229 9.27634 14.7229 9.27634 14.7229 9.27634C14.7229 9.27634 14.7229 9.27634 14.7229 9.27634C14.7229 9.27634 14.7229 9.27634 14.7229 9.27634C14.7229 9.27634 14.7229 9.27634 14.7229 9.27634C14.7229 9.27634 14.7229 9.27634 14.7229 9.27634C14.7229 9.27634 14.7229 9.27634 14.7229 9.27634C14.7229 9.27634 14.7229 9.27634 14.7229 9.27634C14.7229 9.27634 14.7229 9.27634 14.7229 9.27634C14.7229 9.27634 14.7229 9.27634 14.7229 9.27634C14.7229 9.27634 14.7229 9.27634 14.7229 9.27634C14.7229 9.27634 14.7229 9.27634 14.7229 9.27634C14.7229 9.27634 14.7229 9.27634 14.7229 9.27634C14.7229 9.27634 14.7229 9.27634 14.7229 9.27634C14.7229 9.27634 14.7229 9.27634 14.7229 9.27634C14.7229 9.27634 14.7229 9.27634 14.7229 9.27634C14.7229 9.27634 14.7229 9.27634 14.7229 9.27634C14.7229 9.27634 14.7229 9.27634 14.7229 9.27634C14.7229 9.27634 14.7229 9.27634 14.7229 9.27634C14.7229 9.27634 14.7229 9.27634 14.7229 9.27634C14.7229 9.27634 14.7229 9.27634 14.7229 9.27634C14.7229 9.27634 14.7229 9.27634 14.7229 9.27634C14.7229 9.27634 14.7229 9.27634 14.7229 9.27634C14.7229 9.27634 14.7229 9.27634 14.7229 9.27634C14.7229 9.27634 14.7229 9.27634 14.7229 9.27634C14.7229 9.27634 14.7229 9.27634 14.7229 9.27634C14.7229 9.27634 14.7229 9.27634 14.7229 9.27634C14.7229 9.27634 14.7229 9.27634 14.7229 9.27634C14.7229 9.27634 14.7229 9.27634 14.7229 9.27634C14.7229 9.27634 14.7229 9.27634 14.7229 9.27634C14.7229 9.27634 14.7229 9.27634 14.7229 9.27634C14.7229 9.27634 14.7229 9.27634 14.7229 9.27634C14.7229 9.27634 14.7229 9.27634 14.7229 9.27634C14.7229 9.27634 14.7229 9.27634 14.7229 9.27634C14.7229 9.27634 14.7229 9.27634 14.7229 9.27634C14.7229 9.27634 14.7229 9.27634 14.7229 9.27634C14.7229 9.27634 14.7229 9.27634 14.7229 9.27634C14.7229 9.27634 14.7229 9.27634 14.7229 9.27634C14.7229 9.27634 14.7229 9.27634 14.7229 9.27634C14.7229 9.27634 14.7229 9.27634 14.7229 9.27634C14.7229 9.27634 14.7229 9.27634 14.7229 9.27634C14.7229 9.27634 14.7229 9.27634 14.7229 9.27634C14.7229 9.27634 14.7229 9.27634 14.7229 9.27634C14.7229 9.27634 14.7229 9.27634 14.7229 9.27634C14.7229 9.27634 14.7229 9.27634 14.7229 9.27634C14.7229 9.27634 14.7229 9.27634 14.7229 9.27634C14.7229 9.27634 14.7229 9.27634 14.7229 9.27634C14.7229 9.27634 14.7229 9.27634 14.7229 9.27634C14.7229 9.27634 14.7229 9.27634 14.7229 9.27634C14.7229 9.27634 14.7229 9.27634 14.7229 9.27634C14.7229 9.27634 14.7229 9.27634 14.7229 9.27634C14.7229 9.27634 14.7229 9.27634 14.7229 9.27634C14.7229 9.27634 14.7229 9.27634 14.7229 9.27634C14.7229 9.27634 14.7229 9.27634 14.7229 9.27634C14.7229 9.27634 14.7229 9.27634 14.7229 9.27634C14.7229 9.27634 14.7229 9.27634 14.7229 9.27635C14.7229 9.27635 14.7229 9.27635 14.7229 9.27635C14.7229 9.27635 14.7229 9.27635 14.7229 9.27635C14.7229 9.27635 14.7229 9.27635 14.7229 9.27635C14.7229 9.27635 14.7229 9.27635 14.7229 9.27635C14.7229 9.27635 14.7229 9.27635 14.7229 9.27635C14.7229 9.27635 14.7229 9.27635 14.7229 9.27635C14.7229 9.27635 14.7229 9.27635 14.7229 9.27635C14.7229 9.27635 14.7229 9.27635 14.7229 9.27635C14.7229 9.27635 14.7229 9.27635 14.7229 9.27635C14.7229 9.27635 14.7229 9.27635 14.7229 9.27635C14.7229 9.27635 14.7229 9.27635 14.7229 9.27635C14.7229 9.27635 14.7229 9.27635 14.7229 9.27635C14.7229 9.27635 14.7229 9.27635 14.7229 9.27635C14.7229 9.27635 14.7229 9.27635 14.7229 9.27635C14.7229 9.27635 14.7229 9.27635 14.7229 9.27635C14.7229 9.27635 14.7229 9.27635 14.7229 9.27635C14.7229 9.27635 14.7229 9.27635 14.7229 9.27635C14.7229 9.27635 14.7229 9.27635 14.7229 9.27635C14.7229 9.27635 14.7229 9.27635 14.7229 9.27635C14.7229 9.27635 14.7229 9.27635 14.7229 9.27635C14.7229 9.27635 14.7229 9.27635 14.7229 9.27635C14.7229 9.27635 14.7229 9.27635 14.7229 9.27635C14.7229 9.27635 14.7229 9.27635 14.7229 9.27635C14.7229 9.27635 14.7229 9.27635 14.7229 9.27635C14.7229 9.27635 14.7229 9.27635 14.7229 9.27635C14.7229 9.27635 14.7229 9.27635 14.7229 9.27635C14.7229 9.27635 14.7229 9.27635 14.7229 9.27635C14.7229 9.27635 14.7229 9.27635 14.7229 9.27635C14.7229 9.27635 14.7229 9.27635 14.7229 9.27635C14.7229 9.27635 14.7229 9.27635 14.7229 9.27635C14.7229 9.27635 14.7229 9.27635 14.7229 9.27635C14.7229 9.27635 14.7229 9.27635 14.7229 9.27635C14.7229 9.27635 14.7229 9.27635 14.7229 9.27635C14.7229 9.27635 14.7229 9.27635 14.7229 9.27635C14.7229 9.27635 14.7229 9.27635 14.7229 9.27635C14.7229 9.27635 14.7229 9.27635 14.7229 9.27635C14.7229 9.27635 14.7229 9.27635 14.7229 9.27635C14.7229 9.27635 14.7229 9.27635 14.7229 9.27635C14.7229 9.27635 14.7229 9.27635 14.7229 9.27635C14.7229 9.27635 14.7229 9.27635 14.7229 9.27635C14.7229 9.27635 14.7229 9.27635 14.7229 9.27635C14.7229 9.27635 14.7229 9.27635 14.7229 9.27635C14.7229 9.27635 14.7229 9.27635 14.7229 9.27635C14.7229 9.27635 14.7229 9.27635 14.7229 9.27635C14.7229 9.27635 14.7229 9.27635 14.7229 9.27635C14.7229 9.27635 14.7229 9.27635 14.7229 9.27635C14.7229 9.27635 14.7229 9.27635 14.7229 9.27635C14.7229 9.27635 14.7229 9.27635 14.7229 9.27635C14.7229 9.27635 14.7229 9.27635 14.7229 9.27635C14.7229 9.27635 14.7229 9.27635 14.7229 9.27635C14.7229 9.27635 14.7229 9.27635 14.7229 9.27635C14.7229 9.27635 14.7229 9.27635 14.7229 9.27635C14.7229 9.27635 14.7229 9.27635 14.7229 9.27635C14.7229 9.27635 14.7229 9.27635 14.7229 9.27635C14.7229 9.27635 14.7229 9.27635 14.7229 9.27635C14.7229 9.27635 14.7229 9.27635 14.7229 9.27635C14.7229 9.27635 14.7229 9.27635 14.7229 9.27635C14.7229 9.27635 14.7229 9.27635 14.7229 9.27635C14.7229 9.27635 14.7229 9.27635 14.7229 9.27635C14.7229 9.27635 14.7229 9.27635 14.7229 9.27635C14.7229 9.27635 14.7229 9.27635 14.7229 9.27635C14.7229 9.27635 14.7229 9.27635 14.7229 9.27635C14.7229 9.27635 14.7229 9.27635 14.7229 9.27635C14.7229 9.27635 14.7229 9.27635 14.7229 9.27635C14.7229 9.27635 14.7229 9.27635 14.7229 9.27635C14.7229 9.27635 14.7229 9.27635 14.7229 9.27635C14.7229 9.27635 14.7229 9.27635 14.7229 9.27635C14.7229 9.27635 14.7229 9.27635 14.7229 9.27635C14.7229 9.27635 14.7229 9.27635 14.7229 9.27635C14.7229 9.27635 14.7229 9.27635 14.7229 9.27635C14.7229 9.27635 14.7229 9.27635 14.7229 9.27635C14.7229 9.27635 14.7229 9.27635 14.7229 9.27635C14.7229 9.27635 14.7229 9.27635 14.7229 9.27635C14.7229 9.27635 14.7229 9.27635 14.7229 9.27635C14.7229 9.27635 14.7229 9.27635 14.7229 9.27635C14.7229 9.27635 14.7229 9.27635 14.7229 9.27635C14.7229 9.27635 14.7229 9.27635 14.7229 9.27635C14.7229 9.27635 14.7229 9.27635 14.7229 9.27635C14.7229 9.27635 14.7229 9.27635 14.7229 9.27635C14.7229 9.27635 14.7229 9.27635 14.7229 9.27635C14.7229 9.27635 14.7229 9.27635 14.7229 9.27635C14.7229 9.27635 14.7229 9.27635 14.7229 9.27635C14.7229 9.27635 14.7229 9.27635 14.7229 9.27635C14.7229 9.27635 14.7229 9.27635 14.7229 9.27635C14.7229 9.27635 14.7229 9.27635 14.7229 9.27635C14.7229 9.27635 14.7229 9.27635 14.7229 9.27635C14.7229 9.27635 14.7229 9.27635 14.7229 9.27635C14.7229 9.27635 14.7229 9.27635 14.7229 9.27635C14.7229 9.27635 14.7229 9.27635 14.7229 9.27635C14.7229 9.27635 14.7229 9.27635 14.7229 9.27635C14.7229 9.27635 14.7229 9.27635 14.7229 9.27635C14.7229 9.27635 14.7229 9.27635 14.7229 9.27635C14.7229 9.27635 14.7229 9.27635 14.7229 9.27635C14.7229 9.27635 14.7229 9.27635 14.7229 9.27635C14.7229 9.27635 14.7229 9.27635 14.7229 9.27635C14.7229 9.27635 14.7229 9.27635 14.7229 9.27635C14.7229 9.27635 14.7229 9.27635 14.7229 9.27635C14.7229 9.27635 14.7229 9.27635 14.7229 9.27635C14.7229 9.27635 14.7229 9.27635 14.7229 9.27635C14.7229 9.27635 14.7229 9.27635 14.7229 9.27635C14.7229 9.27635 14.7229 9.27635 14.7229 9.27635C14.7229 9.27635 14.7229 9.27635 14.7229 9.27635C14.7229 9.27635 14.7229 9.27635 14.7229 9.27635C14.7229 9.27635 14.7229 9.27635 14.7229 9.27635C14.7229 9.27635 14.7229 9.27635 14.7229 9.27635C14.7229 9.27635 14.7229 9.27635 14.7229 9.27635C14.7229 9.27635 14.7229 9.27635 14.7229 9.27635C14.7229 9.27635 14.7229 9.27635 14.7229 9.27635C14.7229 9.27635 14.7229 9.27635 14.7229 9.27635C14.7229 9.27635 14.7229 9.27635 14.7229 9.27635C14.7229 9.27635 15.7229 9.27635 16.7229 9.27635C16.7229 9.27635 16.7229 9.27635 16.7229 9.27635C16.7229 9.27635 16.7229 9.27635 16.7229 9.27635C16.7229 9.27635 16.7229 9.27635 16.7229 9.27635C16.7229 9.27635 16.7229 9.27635 16.7229 9.27635C16.7229 9.27635 16.7229 9.27635 16.7229 9.27635C16.7229 9.27635 16.7229 9.27635 16.7229 9.27635C16.7229 9.27635 16.7229 9.27635 16.7229 9.27635C16.7229 9.27635 16.7229 9.27635 16.7229 9.27635C16.7229 9.27635 16.7229 9.27635 16.7229 9.27635C16.7229 9.27635 16.7229 9.27635 16.7229 9.27635C16.7229 9.27635 16.7229 9.27635 16.7229 9.27635C16.7229 9.27635 16.7229 9.27635 16.7229 9.27635C16.7229 9.27635 16.7229 9.27635 16.7229 9.27635C16.7229 9.27635 16.7229 9.27635 16.7229 9.27635C16.7229 9.27635 16.7229 9.27635 16.7229 9.27635C16.7229 9.27635 16.7229 9.27635 16.7229 9.27635C16.7229 9.27635 16.7229 9.27635 16.7229 9.27635C16.7229 9.27635 16.7229 9.27635 16.7229 9.27635C16.7229 9.27635 16.7229 9.27635 16.7229 9.27635C16.7229 9.27635 16.7229 9.27635 16.7229 9.27635C16.7229 9.27635 16.7229 9.27635 16.7229 9.27635C16.7229 9.27635 16.7229 9.27635 16.7229 9.27635C16.7229 9.27635 16.7229 9.27635 16.7229 9.27635C16.7229 9.27635 16.7229 9.27635 16.7229 9.27635C16.7229 9.27635 16.7229 9.27635 16.7229 9.27635C16.7229 9.27635 16.7229 9.27635 16.7229 9.27635C16.7229 9.27635 16.7229 9.27635 16.7229 9.27635C16.7229 9.27635 16.7229 9.27635 16.7229 9.27635C16.7229 9.27635 16.7229 9.27635 16.7229 9.27635C16.7229 9.27635 16.7229 9.27635 16.7229 9.27635C16.7229 9.27635 16.7229 9.27635 16.7229 9.27635C16.7229 9.27635 16.7229 9.27635 16.7229 9.27635C16.7229 9.27635 16.7229 9.27635 16.7229 9.27635C16.7229 9.27635 16.7229 9.27635 16.7229 9.27635C16.7229 9.27635 16.7229 9.27635 16.7229 9.27635C16.7229 9.27635 16.7229 9.27635 16.7229 9.27635C16.7229 9.27635 16.7229 9.27635 16.7229 9.27635C16.7229 9.27635 16.7229 9.27635 16.7229 9.27635C16.7229 9.27635 16.7229 9.27635 16.7229 9.27635C16.7229 9.27635 16.7229 9.27635 16.7229 9.27635C16.7229 9.27635 16.7229 9.27635 16.7229 9.27635C16.7229 9.27635 16.7229 9.27635 16.7229 9.27635C16.7229 9.27635 16.7229 9.27635 16.7229 9.27635C16.7229 9.27635 16.7229 9.27635 16.7229 9.27635C16.7229 9.27635 16.7229 9.27635 16.7229 9.27635C16.7229 9.27635 16.7229 9.27635 16.7229 9.27635C16.7229 9.27635 16.7229 9.27635 16.7229 9.27635C16.7229 9.27635 16.7229 9.27635 16.7229 9.27635C16.7229 9.27635 16.7229 9.27635 16.7229 9.27635C16.7229 9.27635 16.7229 9.27635 16.7229 9.27635C16.7229 9.27635 16.7229 9.27635 16.7229 9.27635C16.7229 9.27635 16.7229 9.27635 16.7229 9.27635C16.7229 9.27635 16.7229 9.27635 16.7229 9.27635C16.7229 9.27635 16.7229 9.27635 16.7229 9.27635C16.7229 9.27635 16.7229 9.27635 16.7229 9.27635C16.7229 9.27635 16.7229 9.27635 16.7229 9.27635C16.7229 9.27635 16.7229 9.27635 16.7229 9.27635C16.7229 9.27635 16.7229 9.27635 16.7229 9.27635C16.7229 9.27635 16.7229 9.27635 16.7229 9.27635C16.7229 9.27635 16.7229 9.27635 16.7229 9.27635C16.7229 9.27635 16.7229 9.27635 16.7229 9.27635C16.7229 9.27635 16.7229 9.27635 16.7229 9.27635C16.7229 9.27635 16.7229 9.27635 16.7229 9.27635C16.7229 9.27635 16.7229 9.27635 16.7229 9.27635C16.7229 9.27635 16.7229 9.27635 16.7229 9.27635C16.7229 9.27635 16.7229 9.27635 16.7229 9.27635C16.7229 9.27635 16.7229 9.27635 16.7229 9.27635C16.7229 9.27635 16.7229 9.27635 16.7229 9.27635C16.7229 9.27635 16.7229 9.27635 16.7229 9.27635C16.7229 9.27635 16.7229 9.27635 16.7229 9.27635C16.7229 9.27635 16.7229 9.27635 16.7229 9.27635C16.7229 9.27635 16.7229 9.27635 16.7229 9.27635C16.7229 9.27635 16.7229 9.27635 16.7229 9.27635C16.7229 9.27635 16.7229 9.27635 16.7229 9.27635C16.7229 9.27635 16.7229 9.27635 16.7229 9.27635C16.7229 9.27635 16.7229 9.27635 16.7229 9.27635C16.7229 9.27635 16.7229 9.27635 16.7229 9.27635C16.7229 9.27635 16.7229 9.27635 16.7229 9.27635C16.7229 9.27635 16.7229 9.27635 16.7229 9.27635C16.7229 9.27635 16.7229 9.27635 16.7229 9.27635C16.7229 9.27635 16.7229 9.27635 16.7229 9.27635C16.7229 9.27635 16.7229 9.27635 16.7229 9.27635C16.7229 9.27635 16.7229 9.27635 16.7229 9.27635C16.7229 9.27635 16.7229 9.27635 16.7229 9.27635C16.7229 9.27635 16.7229 9.27635 16.7229 9.27635C16.7229 9.27635 16.7229 9.27635 16.7229 9.27635C16.7229 9.27635 16.7229 9.27635 16.7229 9.27635C16.7229 9.27635 16.7229 9.27634 16.7229 9.27634C16.7229 9.27634 16.7229 9.27634 16.7229 9.27634C16.7229 9.27634 16.7229 9.27634 16.7229 9.27634C16.7229 9.27634 16.7229 9.27634 16.7229 9.27634C16.7229 9.27634 16.7229 9.27634 16.7229 9.27634C16.7229 9.27634 16.7229 9.27634 16.7229 9.27634C16.7229 9.27634 16.7229 9.27634 16.7229 9.27634C16.7229 9.27634 16.7229 9.27634 16.7229 9.27634C16.7229 9.27634 16.7229 9.27634 16.7229 9.27634C16.7229 9.27634 16.7229 9.27634 16.7229 9.27634C16.7229 9.27634 16.7229 9.27634 16.7229 9.27634C16.7229 9.27634 16.7229 9.27634 16.7229 9.27634C16.7229 9.27634 16.7229 9.27634 16.7229 9.27634C16.7229 9.27634 16.7229 9.27634 16.7229 9.27634C16.7229 9.27634 16.7229 9.27634 16.7229 9.27634C16.7229 9.27634 16.7229 9.27634 16.7229 9.27634C16.7229 9.27634 16.7229 9.27634 16.7229 9.27634C16.7229 9.27634 16.7229 9.27634 16.7229 9.27634C16.7229 9.27634 16.7229 9.27634 16.7229 9.27634C16.7229 9.27634 16.7229 9.27634 16.7229 9.27634C16.7229 9.27634 16.7229 9.27634 16.7229 9.27634C16.7229 9.27634 16.7229 9.27634 16.7229 9.27634C16.7229 9.27634 16.7229 9.27634 16.7229 9.27634C16.7229 9.27634 16.7229 9.27634 16.7229 9.27634C16.7229 9.27634 16.7229 9.27634 16.7229 9.27634C16.7229 9.27634 16.7229 9.27634 16.7229 9.27634C16.7229 9.27634 16.7229 9.27634 16.7229 9.27634C16.7229 9.27634 16.7229 9.27634 16.7229 9.27634C16.7229 9.27634 16.7229 9.27634 16.7229 9.27634C16.7229 9.27634 16.7229 9.27634 16.7229 9.27634C16.7229 9.27634 16.7229 9.27634 16.7229 9.27634C16.7229 9.27634 16.7229 9.27634 16.7229 9.27634C16.7229 9.27634 16.7229 9.27634 16.7229 9.27634C16.7229 9.27634 16.7229 9.27634 16.7229 9.27634C16.7229 9.27634 16.7229 9.27634 16.7229 9.27634C16.7229 9.27634 16.7229 9.27634 16.7229 9.27634C16.7229 9.27634 16.7229 9.27634 16.7229 9.27634H14.7229ZM14.7667 9.56915C15.0277 10.4214 15.8111 11.0811 16.7831 11.0811V9.08113C16.766 9.08113 16.7496 9.07645 16.7312 9.06222C16.7107 9.04636 16.6901 9.01964 16.679 8.98353L14.7667 9.56915ZM16.7831 11.0811H24.918V9.08113H16.7831V11.0811ZM24.918 11.0811C24.8452 11.0811 24.7331 11.0719 24.6042 11.0254C24.4643 10.9749 24.3692 10.9033 24.3265 10.8685L25.5886 9.31707C25.5388 9.27658 25.4356 9.1992 25.2835 9.14428C25.1424 9.09332 25.014 9.08113 24.918 9.08113V11.0811ZM24.3208 10.8639C24.1704 10.7397 24.0807 10.5878 24.0367 10.4442L25.9489 9.85812C25.8861 9.65323 25.7659 9.46348 25.5942 9.32171L24.3208 10.8639ZM24.0361 10.4423C23.9933 10.3016 23.9848 10.1387 24.031 9.96967L25.9602 10.4973C26.0186 10.2838 26.0109 10.0616 25.9495 9.85997L24.0361 10.4423ZM24.0309 9.97002C24.0514 9.89504 24.0874 9.80235 24.1504 9.70756C24.2125 9.6143 24.2831 9.54546 24.3463 9.49682L25.5659 11.082C25.7675 10.9268 25.8992 10.7204 25.9603 10.497L24.0309 9.97002ZM24.3457 9.49731L17.7645 14.5692L18.9853 16.1533L25.5665 11.0815L24.3457 9.49731ZM17.7644 14.5693C17.0319 15.1338 16.7639 16.0889 17.0218 16.931L18.9341 16.3454C18.9229 16.3087 18.923 16.2679 18.9344 16.2307C18.9454 16.1945 18.9644 16.1694 18.9854 16.1533L17.7644 14.5693ZM17.0218 16.9311L19.5357 25.1376L21.448 24.5518L18.9341 16.3453L17.0218 16.9311ZM19.5356 25.1375C19.5145 25.0684 19.4985 24.9815 19.4999 24.8811C19.5013 24.7784 19.5206 24.6847 19.5482 24.6042L21.4399 25.2534C21.5158 25.0325 21.5208 24.7897 21.448 24.5519L19.5356 25.1375ZM19.5462 24.6101C19.6041 24.4381 19.71 24.2951 19.8436 24.1918L21.0668 25.7741C21.2363 25.6431 21.3701 25.4612 21.442 25.2475L19.5462 24.6101ZM19.8458 24.1901C19.9825 24.085 20.167 24.0076 20.3834 24.0005L20.4486 25.9994C20.6777 25.992 20.8918 25.9087 21.0646 25.7758L19.8458 24.1901ZM20.3739 24.0009C20.3731 24.0009 20.3817 24.0005 20.3922 24.0003C20.4033 24 20.4166 23.9999 20.4318 24.0001C20.4626 24.0007 20.4957 24.0027 20.5307 24.0069C20.6012 24.0153 20.6674 24.031 20.7284 24.0518C20.8479 24.0926 20.9348 24.1487 20.9892 24.1906L19.7691 25.7753C19.8464 25.8348 19.9504 25.8995 20.0821 25.9445C20.149 25.9673 20.22 25.984 20.2941 25.9928C20.3309 25.9972 20.3655 25.9993 20.3974 25.9999C20.4132 26.0001 20.4271 26 20.4386 25.9997C20.4495 25.9995 20.4585 25.9991 20.4581 25.9991L20.3739 24.0009ZM20.9896 24.1909L14.4083 19.1191L13.1874 20.7032L19.7687 25.775L20.9896 24.1909ZM14.4082 19.119C13.6548 18.5385 12.6144 18.5382 11.8607 19.1189L13.0814 20.7032C13.1012 20.6879 13.1192 20.6835 13.1343 20.6835C13.1495 20.6835 13.1676 20.6879 13.1875 20.7033L14.4082 19.119ZM11.8606 19.119L5.27933 24.1909L6.50017 25.775L13.0815 20.7031L11.8606 19.119ZM5.27956 24.1907C5.33453 24.1484 5.42592 24.089 5.55343 24.0475C5.61893 24.0262 5.68878 24.0113 5.76177 24.0044C5.82273 23.9986 5.92233 24 5.85283 24V26C5.78429 26 5.88601 26.0015 5.95034 25.9954C6.02671 25.9882 6.1012 25.9725 6.17271 25.9492C6.31223 25.9038 6.42112 25.8359 6.49994 25.7752L5.27956 24.1907ZM5.88518 24.0005C6.10197 24.0075 6.28694 24.0852 6.42393 24.1908L5.20338 25.7752C5.3764 25.9084 5.5908 25.992 5.82049 25.9995L5.88518 24.0005ZM6.42481 24.1915C6.55828 24.2945 6.66441 24.4375 6.72236 24.6095L4.82707 25.2481C4.89915 25.462 5.03308 25.6437 5.2025 25.7745L6.42481 24.1915ZM6.72175 24.6077C6.74795 24.6849 6.76738 24.7773 6.76891 24.8802C6.7704 24.9807 6.75445 25.0679 6.73323 25.1373L4.82074 24.5521C4.74728 24.7922 4.75426 25.0334 4.82768 25.2499L6.72175 24.6077ZM6.73313 25.1376L9.24694 16.9312L7.33465 16.3454L4.82084 24.5518L6.73313 25.1376ZM9.24695 16.9311C9.50489 16.089 9.23706 15.1338 8.50424 14.5692L7.28351 16.1534C7.3045 16.1696 7.32345 16.1946 7.33445 16.2306C7.34581 16.2678 7.34593 16.3086 7.33464 16.3454L9.24695 16.9311ZM8.5043 14.5692L1.92311 9.49732L0.702265 11.0815L7.28345 16.1533L8.5043 14.5692ZM1.92313 9.49734C1.98652 9.54619 2.05698 9.6151 2.11878 9.70817C2.18152 9.80265 2.21712 9.89461 2.23735 9.96808L0.309091 10.4989C0.369833 10.7196 0.500128 10.9257 0.702245 11.0815L1.92313 9.49734ZM2.23736 9.9681C2.28417 10.1382 2.27556 10.3023 2.23219 10.4439L0.319853 9.85831C0.257789 10.061 0.250013 10.2843 0.309085 10.4989L2.23736 9.9681ZM2.23215 10.4441C2.18857 10.5863 2.09907 10.7401 1.94541 10.8661L0.67726 9.31952C0.502218 9.46305 0.382252 9.65467 0.319899 9.85816L2.23215 10.4441ZM1.94565 10.8659C1.90101 10.9025 1.80531 10.9745 1.66499 11.0252C1.53588 11.0719 1.42356 11.0811 1.35073 11.0811V9.08113C1.25475 9.08113 1.12622 9.09332 0.984935 9.1444C0.832437 9.19954 0.72862 9.27737 0.677016 9.31972L1.94565 10.8659ZM1.35073 11.0811H9.48559V9.08113H1.35073V11.0811ZM9.48559 11.0811C10.4577 11.0811 11.241 10.4214 11.502 9.56931L9.58973 8.98354C9.57867 9.01967 9.55805 9.04638 9.53754 9.06223C9.51916 9.07643 9.5028 9.08113 9.48559 9.08113V11.0811ZM11.502 9.56931L14.0158 1.3629L12.1036 0.777116L9.58974 8.98353L11.502 9.56931Z"
      fill="#FFB800" mask="url(#path-1-outside-1_6_190)" />
    <path
      d="M13.0757 1.07001C13.0879 1.03045 13.1036 1.01699 13.1104 1.01204C13.1201 1.00508 13.1337 1 13.1503 1C13.1669 1 13.1806 1.00508 13.1902 1.01204C13.197 1.01699 13.2127 1.03038 13.2249 1.06993L15.7353 9.27634C15.8778 9.74231 16.2968 10.0811 16.7941 10.0811H24.9181C24.9413 10.0811 24.9506 10.0871 24.9576 10.0928C24.9682 10.1016 24.9834 10.1205 24.9928 10.1511C25.0021 10.1816 25.0017 10.2112 24.9956 10.2335C24.9905 10.252 24.9806 10.2706 24.9561 10.2894L18.3838 15.3613C17.9968 15.6599 17.846 16.1759 17.9874 16.6382L20.4979 24.8447C20.51 24.8845 20.5062 24.9111 20.5001 24.9288C20.4931 24.9497 20.4792 24.9691 20.4613 24.983C20.4432 24.9968 20.4285 24.9998 20.4221 25C20.4196 25.0001 20.4082 25.0006 20.3853 24.983L13.8129 19.9111C13.0042 19.5 13.0001 19.9111 13 19.3789C13 19.1836 13.0119 18.8789 13.0119 18.8789L13.0161 19.1553C12.9923 19.1736 13.0117 19.1553 13.0117 19.1553C13.0117 13.1553 13.0161 13.8333 13.0161 19.1553C13.0149 15.2628 13.0117 13.1553 13.0117 19.1553C13.0161 12.9801 13.0039 18.6951 13.0161 18.6553L13.0161 16C13.0161 15 13.0161 13 13.0161 12.5L13.0161 18.6553C13.0161 12.1553 13.0161 14.8018 13.0117 11.5C13.0093 9.68546 13.0067 10.3199 13.0161 10.2894C13.0054 10.2982 13.0255 10.2588 13.0161 10.2894C13.023 10.2837 13.0161 15.5776 13.0161 11L13.0117 10.0811C13.0117 9.65527 13.0117 9.65527 13.0117 9L13.0757 1.07001Z"
      fill="#F7FEEC" />

  </symbol>
  <symbol id="settings" width="24" height="24" viewBox="0 0 24 24" fill="none">
    <mask id="mask0_8_144" style="mask-type:alpha" maskUnits="userSpaceOnUse" x="0" y="0" width="24" height="24">
      <rect width="24" height="24" fill="#D9D9D9" />
    </mask>
    <g mask="url(#mask0_8_144)">
      <path
        d="M9.25001 22L8.85001 18.8C8.63335 18.7167 8.42935 18.6167 8.23801 18.5C8.04601 18.3833 7.85835 18.2583 7.67501 18.125L4.70001 19.375L1.95001 14.625L4.52501 12.675C4.50835 12.5583 4.50001 12.4457 4.50001 12.337V11.662C4.50001 11.554 4.50835 11.4417 4.52501 11.325L1.95001 9.375L4.70001 4.625L7.67501 5.875C7.85835 5.74167 8.05001 5.61667 8.25001 5.5C8.45001 5.38333 8.65001 5.28333 8.85001 5.2L9.25001 2H14.75L15.15 5.2C15.3667 5.28333 15.571 5.38333 15.763 5.5C15.9543 5.61667 16.1417 5.74167 16.325 5.875L19.3 4.625L22.05 9.375L19.475 11.325C19.4917 11.4417 19.5 11.554 19.5 11.662V12.337C19.5 12.4457 19.4833 12.5583 19.45 12.675L22.025 14.625L19.275 19.375L16.325 18.125C16.1417 18.2583 15.95 18.3833 15.75 18.5C15.55 18.6167 15.35 18.7167 15.15 18.8L14.75 22H9.25001ZM12.05 15.5C13.0167 15.5 13.8417 15.1583 14.525 14.475C15.2083 13.7917 15.55 12.9667 15.55 12C15.55 11.0333 15.2083 10.2083 14.525 9.525C13.8417 8.84167 13.0167 8.5 12.05 8.5C11.0667 8.5 10.2373 8.84167 9.56201 9.525C8.88735 10.2083 8.55001 11.0333 8.55001 12C8.55001 12.9667 8.88735 13.7917 9.56201 14.475C10.2373 15.1583 11.0667 15.5 12.05 15.5ZM12.05 13.5C11.6333 13.5 11.2793 13.354 10.988 13.062C10.696 12.7707 10.55 12.4167 10.55 12C10.55 11.5833 10.696 11.2293 10.988 10.938C11.2793 10.646 11.6333 10.5 12.05 10.5C12.4667 10.5 12.821 10.646 13.113 10.938C13.4043 11.2293 13.55 11.5833 13.55 12C13.55 12.4167 13.4043 12.7707 13.113 13.062C12.821 13.354 12.4667 13.5 12.05 13.5ZM11 20H12.975L13.325 17.35C13.8417 17.2167 14.321 17.0207 14.763 16.762C15.2043 16.504 15.6083 16.1917 15.975 15.825L18.45 16.85L19.425 15.15L17.275 13.525C17.3583 13.2917 17.4167 13.0457 17.45 12.787C17.4833 12.529 17.5 12.2667 17.5 12C17.5 11.7333 17.4833 11.4707 17.45 11.212C17.4167 10.954 17.3583 10.7083 17.275 10.475L19.425 8.85L18.45 7.15L15.975 8.2C15.6083 7.81667 15.2043 7.49567 14.763 7.237C14.321 6.979 13.8417 6.78333 13.325 6.65L13 4H11.025L10.675 6.65C10.1583 6.78333 9.67935 6.979 9.23801 7.237C8.79601 7.49567 8.39168 7.80833 8.02501 8.175L5.55001 7.15L4.57501 8.85L6.72501 10.45C6.64168 10.7 6.58335 10.95 6.55001 11.2C6.51668 11.45 6.50001 11.7167 6.50001 12C6.50001 12.2667 6.51668 12.525 6.55001 12.775C6.58335 13.025 6.64168 13.275 6.72501 13.525L4.57501 15.15L5.55001 16.85L8.02501 15.8C8.39168 16.1833 8.79601 16.504 9.23801 16.762C9.67935 17.0207 10.1583 17.2167 10.675 17.35L11 20Z"
        fill="#1C1B1F" />
    </g>
  </symbol>
  <symbol id="code" width="25" height="25" viewBox="0 0 25 25" fill="none">
    <path
      d="M20.7702 19.7883C19.3003 21.5495 17.3324 22.8426 15.1152 23.504C12.898 24.1653 10.5311 24.1653 8.31397 23.5039C6.09679 22.8424 4.12886 21.5493 2.65902 19.7881C1.18919 18.0268 0.283467 15.8764 0.0563952 13.609C-0.170677 11.3415 0.291098 9.05874 1.38333 7.04934C2.47555 5.03995 4.14918 3.39418 6.19256 2.32016C8.23594 1.24614 10.5573 0.792092 12.8631 1.01545C15.1689 1.2388 17.3555 2.12952 19.1465 3.57497L17.9131 5.05288C16.4194 3.84732 14.5956 3.10443 12.6725 2.91814C10.7494 2.73186 8.81329 3.11055 7.10904 4.00632C5.40478 4.9021 4.00892 6.27473 3.09796 7.95063C2.18701 9.62654 1.80187 11.5304 1.99125 13.4216C2.18064 15.3128 2.93604 17.1062 4.16194 18.5752C5.38783 20.0441 7.02916 21.1227 8.87837 21.6743C10.7276 22.226 12.7016 22.226 14.5508 21.6744C16.4 21.1228 18.0414 20.0443 19.2673 18.5754L20.7702 19.7883Z"
      fill="black" />
    <path
      d="M18.5536 2.11986C19.0636 1.54831 19.9984 1.73138 20.2468 2.45144L21.5688 6.28409C21.8201 7.01259 21.1817 7.74268 20.4234 7.59416L16.3871 6.80372C15.6287 6.6552 15.3235 5.74033 15.8394 5.16208L18.5536 2.11986Z"
      fill="black" />
    <path
      d="M5.93844 11.0332C5.93844 9.6347 6.49555 8.29343 7.48722 7.30451C8.47889 6.31558 9.82389 5.76001 11.2263 5.76001C12.6288 5.76001 13.9738 6.31558 14.9654 7.30451C15.9571 8.29343 16.5142 9.6347 16.5142 11.0332L15.4566 11.0332C15.4566 9.91441 15.0109 8.84139 14.2176 8.05025C13.4243 7.25911 12.3483 6.81466 11.2263 6.81466C10.1044 6.81466 9.02838 7.25912 8.23504 8.05025C7.44171 8.84139 6.99601 9.91441 6.99601 11.0332H5.93844Z"
      fill="black" />
    <path
      d="M4.88086 12.0879C4.88086 11.1171 5.67002 10.3302 6.64349 10.3302H15.8092C16.7826 10.3302 17.5718 11.1171 17.5718 12.0879V16.4823C17.5718 17.453 16.7826 18.24 15.8092 18.24H6.64349C5.67002 18.24 4.88086 17.453 4.88086 16.4823V12.0879Z"
      fill="black" />
    <path
      d="M12.9891 13.6699C12.9891 14.6406 12.2 15.4276 11.2265 15.4276C10.253 15.4276 9.46387 14.6406 9.46387 13.6699C9.46387 12.6991 10.253 11.9121 11.2265 11.9121C12.2 11.9121 12.9891 12.6991 12.9891 13.6699Z"
      fill="white" />
    <path d="M10.8786 13.6699H11.5744V17.1853H9.90452L10.8786 13.6699Z" fill="white" />
    <path d="M11.5744 13.6699H10.8786V17.1853H12.5485L11.5744 13.6699Z" fill="white" />
  </symbol>
  <symbol width="37" height="25" viewBox="0 0 40 30" fill="none" id="handshake">
    <path d="M1.25977 10.4348L0.679443 12.127L1.52551 12.4171L2.10583 10.725L1.25977 10.4348Z" fill="black" />
    <path
      d="M12.6714 1.65961L12.2167 1.88322C11.6502 2.15901 10.9868 2.19628 10.3979 1.98757L9.63765 1.71924C9.59293 1.68942 9.54821 1.66706 9.50349 1.65215L4.8225 0.0495861C4.47217 -0.0696747 4.08457 0.11667 3.96531 0.466999L0.0371608 11.9086C-0.0224696 12.08 -0.00756196 12.2664 0.066976 12.4229C0.141514 12.5794 0.283136 12.7061 0.454574 12.7658L5.12811 14.3683C5.20264 14.3907 5.27718 14.4056 5.34427 14.4056C5.62751 14.4056 5.88839 14.2267 5.98529 13.9509L9.68983 3.17273L9.94326 3.26217C10.875 3.59014 11.9185 3.53051 12.813 3.09819L13.2677 2.87458C13.8267 2.59879 14.4826 2.56152 15.0715 2.76277L23.6657 5.72193C23.5763 6.07971 23.3974 6.50458 23.0694 6.73564C22.7042 6.98907 22.16 6.98907 21.4445 6.7431L17.6132 5.43123C17.4343 5.3716 17.2405 5.38651 17.0765 5.47595C16.9126 5.5654 16.7933 5.72193 16.7411 5.90082C16.7337 5.92318 16.2045 7.90589 14.5124 8.81525C13.4465 9.3892 12.1198 9.41156 10.5619 8.88234C10.2116 8.76308 9.824 8.94942 9.70474 9.29975C9.58548 9.65008 9.77182 10.0377 10.1222 10.1569C11.0166 10.4625 11.8589 10.6191 12.6415 10.6191C13.5509 10.6191 14.3857 10.4178 15.146 10.0079C16.6591 9.1954 17.4418 7.77172 17.7996 6.92199L20.9972 8.0177C22.1377 8.41275 23.0918 8.35312 23.8297 7.83881C25.0148 7.01889 25.0745 5.35669 25.0819 5.28215C25.0894 4.984 24.903 4.72312 24.6272 4.62622L15.5038 1.48072C14.587 1.16766 13.5509 1.23474 12.6714 1.65961ZM4.93431 12.8701L1.53537 11.7073L5.0163 1.5478L8.41523 2.71059L4.93431 12.8701Z"
      fill="black" />
    <path d="M30.615 12.1914L31.4012 13.7982L32.2046 13.4051L31.4184 11.7983L30.615 12.1914Z" fill="black" />
    <path
      d="M30.5754 13.6379L28.9728 15.1137C27.5193 16.448 25.8795 17.5735 24.1055 18.4381L15.6007 22.5973C15.228 22.7837 14.7734 22.6272 14.587 22.247C14.4007 21.8743 14.5572 21.4196 14.9373 21.2333L15.0417 21.1811L19.6929 18.9077C20.0283 18.7437 20.1699 18.3412 20.0059 18.0058C19.8419 17.6704 19.4394 17.5288 19.104 17.6927L14.4528 19.9661L12.1123 21.114C11.7397 21.3004 11.285 21.1439 11.0986 20.7637C11.0092 20.5848 10.9943 20.3761 11.0614 20.1898C11.1284 19.996 11.2626 19.8469 11.4415 19.7574L13.2081 18.8928L18.2617 16.4181C18.5972 16.2542 18.7388 15.8517 18.5748 15.5162C18.4108 15.1808 18.0083 15.0392 17.6729 15.2032L12.6117 17.6853L12.418 17.7822L10.0029 18.9673C9.82403 19.0568 9.61532 19.0717 9.42898 19.0046C9.23518 18.9375 9.0861 18.8034 8.99666 18.6245C8.81031 18.2518 8.96684 17.7971 9.34699 17.6107L10.1818 17.2008L11.8887 16.366L12.3658 16.1349L16.2865 14.2118C16.6219 14.0478 16.7635 13.6453 16.5995 13.3099C16.4355 12.9745 16.033 12.8329 15.6976 12.9968L11.449 15.0765L9.59296 15.9858C9.22027 16.1647 8.76559 16.0156 8.57924 15.6355C8.4898 15.4566 8.47489 15.2479 8.54198 15.0615C8.60906 14.8678 8.74323 14.7187 8.92212 14.6292L12.1645 13.0416C12.4999 12.8776 12.6416 12.4751 12.4776 12.1397C12.3136 11.8042 11.9111 11.6626 11.5757 11.8266L8.33327 13.4143C7.82641 13.6602 7.44627 14.0926 7.26738 14.6218C7.08848 15.151 7.1183 15.7249 7.36427 16.2318C7.5208 16.5449 7.74442 16.8057 8.01276 16.9995C7.54317 17.6182 7.42391 18.4679 7.78914 19.2133C8.03512 19.7202 8.46744 20.1003 8.99666 20.2792C9.22027 20.3537 9.44388 20.391 9.6675 20.391C9.66004 20.7264 9.72713 21.0619 9.88366 21.3675C10.2489 22.1128 11.0017 22.5452 11.7769 22.5452C12.09 22.5452 12.403 22.4781 12.7012 22.329L13.1782 22.0979C13.2006 22.3514 13.2677 22.5973 13.3795 22.8359C13.7447 23.5812 14.4976 24.0136 15.2728 24.0136C15.5858 24.0136 15.8989 23.9465 16.197 23.7974L24.7018 19.6382C26.5951 18.7139 28.3393 17.5213 29.8897 16.0976L31.7904 14.346L36.1434 12.2142C36.4788 12.0502 36.6204 11.6477 36.4565 11.3123L31.1344 0.467011C31.0524 0.303027 30.9183 0.183766 30.7468 0.124136C30.5754 0.0645055 30.3891 0.0794132 30.2325 0.153951L25.7901 2.32301C25.4546 2.48699 25.313 2.8895 25.477 3.22492L30.5754 13.6379ZM30.2176 1.66707L34.9359 11.3197L31.7084 12.8999L26.9901 3.24728L30.2176 1.66707Z"
      fill="black" />

  </symbol>
  <!-- <symbol id="readed" width="19" height="12" viewBox="0 0 19 12" fill="none">
    <path d="M1 7L5.5 10.5L14 1.5M17.5 2L9 11L8 10" stroke="white" stroke-width="2" stroke-linecap="round"
      stroke-linejoin="round" />
  </symbol>
  <symbol id="not-readed" width="15" height="12" viewBox="0 0 15 12" fill="none">
    <path d="M1 7L5.5 10.5L14 1.5" stroke="white" stroke-width="2" stroke-linecap="round" stroke-linejoin="round" />
  </symbol> -->


</svg>